<?xml version="1.0" encoding="utf-8"?>
<!-- Generator: Adobe Illustrator 17.0.0, SVG Export Plug-In . SVG Version: 6.00 Build 0)  -->
<!DOCTYPE svg PUBLIC "-//W3C//DTD SVG 1.1//EN" "http://www.w3.org/Graphics/SVG/1.1/DTD/svg11.dtd">
<svg version="1.1" id="Layer_1" xmlns="http://www.w3.org/2000/svg" xmlns:xlink="http://www.w3.org/1999/xlink" x="0px" y="0px"
	 width="1540px" height="538px" viewBox="0 0 1540 538" enable-background="new 0 0 1540 538" xml:space="preserve">
<g>
	<path fill="#222222" d="M944.198,0.456c0,5.984,0,11.968,0,17.951c-4.849-5.644-3.145-11.956-3.704-17.951
		C941.729,0.456,942.963,0.456,944.198,0.456z"/>
	<path fill="#222222" d="M1258.82,246.862c1.774,11.735-1.309,23.525,3.24,35.638c2.485,6.614-0.928,16.255-3.636,23.831
		c-4.88,13.654-10.14,27.593-25.61,33.478c-1.314,0.5-2.118,2.343-4.479,5.108c11.087,0,20.663,0,30.239,0
		c0.042,0.846,0.085,1.692,0.127,2.538c-2.435,0.394-4.862,0.844-7.306,1.17c-6.864,0.916-14.411-2.364-20.488,3.36
		c-5.966-8.007-11.6,0.063-17.405,0.222c-16.599,0.456-33.475,2-49.541-9.401c-2.201,10.836-2.681,20.353-0.702,28.696
		c2.093,8.82-1.76,16.27-0.595,24.832c-8.685,0-16.52,0-24.458,0c-1.212-1.212-2.519-2.519-4.049-4.049
		c0.079-0.667,0.001-1.6,0.311-2.378c4.411-11.075,3.487-22.513,0.519-33.425c-1.661-6.107-3.115-10.618,0.717-16.663
		c1.828-2.884-0.644-8.495-1.88-12.789c0.413-5.181,7.114-9.506,0.837-16.051c-3.841-4.005-2.124-8.854,2.032-12.465
		c-5.118-10.655-5.063-30.249,0.36-41.843c-8.437-13.574-2.838-26.462,2.704-39.866c-1-1.767-2.37-4.187-4.158-7.344
		c18.654-4.897,36.206-11.145,54.583-8.628c10.724,1.469,21.78,2.397,32.17,6.849c9.172,3.93,16.166,10.235,22.199,17.501
		C1250.063,231.823,1254.153,239.642,1258.82,246.862z M1220.502,233.849c-13.387-3.603-26.668-7.178-39.399-10.604
		c-5.092,1.676-9.927,3.268-13.327,4.387c-1.614,4.297-3.694,7.484-3.796,10.733c-0.115,3.632,1.963,7.278,2.357,10.996
		c0.452,4.267,1.499,9.264-0.146,12.817c-5.941,12.838-2.929,26.185-3.236,39.269c-0.16,6.806,1.927,13.666,2.828,19.404
		c16.192,9.502,32.134,3.925,44.948,5.467c6.138-5.398,10.714-9.422,14.786-13.003c1.398-7.017,3.866-13.344,3.557-19.533
		c-0.321-6.449,3.347-12.234,0.785-19.301c-2.173-5.992,0.617-13.622-0.747-20.116
		C1227.735,247.81,1223.948,241.761,1220.502,233.849z M1194.839,207.883c-0.411,0-0.823,0-1.234,0c0,1.235,0,2.469,0,3.704
		c0.411,0,0.823,0,1.234,0C1194.839,210.352,1194.839,209.118,1194.839,207.883z"/>
	<path fill="#222222" d="M243.335,255.374c6.823,8.383,5.458,17.474,4.067,25.295c-1.744,9.8-6.988,19.031,0.02,28.663
		c-5.837,6.759-2.471,14.879-3.226,22.376c-0.37,3.667-0.064,7.401-0.064,11.534c-2.941,2.704-6.105,5.613-9.342,8.588
		c-5.023,0-10.408,0-16.413,0c0-30.574,0-60.648,0-90.443c-13.912-5.793-26.339,2.293-39.293,2.102
		c-13.556-0.199-27.118-0.045-41.796-0.045c-1.836,27.732-3.666,55.38-5.607,84.698c-0.29,0.253-2.139,1.863-4.347,3.786
		c-6.016,0-12.63,0-20.253,0c0-25.572,0.945-50.789-0.228-75.907c-1.634-34.981,4.832-69.455,4.106-103.501
		c2.086-2.086,3.396-3.396,5.044-5.044c6.27,0,12.879,0,19.271,0c1.926,2.02,3.602,3.777,4.402,4.616
		c-1.086,7.288-2.617,13.564-2.837,19.886c-0.43,12.331,0.06,24.692-0.238,37.031c-0.091,3.756-1.513,7.481-2.54,12.209
		c16.826,0,33.974,0.263,51.106-0.15c5.624-0.136,13.008-4.748,16.4-2.501c5.623,3.724,10.403,1.297,17.532,3.813
		c-1.35-4.726-2.061-7.215-3.265-11.434c1.805-0.361,5.591-1.119,9.377-1.877c-0.81-1.485-1.62-2.97-2.43-4.455
		c-1.371-4.225-2.743-8.45-4.143-12.764c-16.506,7.088-32.151,1.087-47.883,1.293c2.052-0.519,4.153-0.899,6.146-1.588
		c3.233-1.118,6.361-3.271,9.599-3.405c2.52-0.104,5.033,2.614,7.747,3.31c2.304,0.591,6.117,1.117,7.145-0.107
		c5.506-6.555,12.867-1.653,19.476-4.21c2.895-2.949-3.319-2.48-2.309-5.009c5.959-10.387,2.393-22.132,3.538-33.335
		c1.746-1.746,3.492-3.492,5.302-5.302c4.857,0,9.778,0,15.099,0c1.421,1.582,3.061,3.409,5.433,6.051
		c-1.917,10.741,2.076,22.468-3.163,34.59c-2.634,6.093-1.278,14.972,1.248,22.969c2.378,7.53,0.585,16.402,0.404,24.679
		C246.401,252.705,244.922,253.59,243.335,255.374z"/>
	<path fill="#222222" d="M462.671,348.637c-9.275,6.855-19.439,2.167-29.527,1.356c1.913-0.632,3.826-1.264,7.303-2.413
		c0-9.496-0.292-19.78,0.053-30.042c1.165-34.553,6.232-68.967,3.019-103.128c11.623-9.693,14.562-10.232,55.125-10.232
		c3.954,4.749,8.623,10.358,13.734,16.496c8.199-6.066,15.159-11.214,22.298-16.496c6.157,0,12.355-0.579,18.385,0.179
		c5.05,0.634,9.904,2.83,16.495,4.836c2.975,2.998,7.3,7.357,11.2,11.287c8.276,40.909,1.975,81.84,4.591,122.333
		c-6.001,3.088-11.579,5.958-17.354,8.93c-1.433-0.838-3.372-1.972-5.312-3.106c-1.235-2.567-2.789-5.034-3.64-7.723
		c-1.972-6.232,7.012-10.645,2.326-18.299c-2.801-4.575-2.829-11.656-2.145-17.377c1.191-9.958,4.973-19.648,3.418-29.893
		c-2.005-13.214-4.307-26.384-6.555-40.018c-5.787-2.21-11.059-4.224-17.445-6.664c-11.508,18.883-17.404,37.434-9.221,58.615
		c-1.626,1.7-3.302,3.452-5.235,5.472c-6.371,0-12.969,0-19.07,0c-6.72-11.967-4.961-24.646-5.526-37.082
		c-0.313-6.893-1.895-13.729-2.984-21.126c-7.446-1.983-14.085-3.751-22.82-6.077c0,6.4-0.454,11.143,0.078,15.773
		c2.379,20.675-3.566,40.776-4.576,61.245c-0.542,10.992-2.521,22.307-3.075,33.596
		C466.051,342.316,463.905,345.454,462.671,348.637z"/>
	<path fill="#222222" d="M646.556,230.642c-3.588-3.588-6.642-6.642-9.696-9.696c-0.006-5.966-1.763-12.472,4.994-16.188
		c11.666-2.758,24.318,3.414,34.339-3.577c17.982,2.634,33.999,8.733,49.786,15.546c9.776,16.177,16.509,32.659,14.615,51.837
		c-0.724,7.332-0.118,14.796-0.118,22.199c0,9.872,0.603,19.791-0.18,29.6c-0.698,8.747-2.93,17.371-4.632,26.878
		c-12.492,7.142-26.317,7.409-38.103,1.951c-19.296,5.299-37.371,4.487-55.927-1.24c-6.919-6.919-14.336-14.336-22.602-22.602
		c-0.463-2.406-0.958-5.832-1.857-9.148c-0.28-1.033-1.653-1.77-2.535-2.653c6.779-5.142,1.869-12.601,4.244-19.188
		c0.719-0.846,2.24-2.052,3.011-3.626c10.496-21.428,25.083-30.917,47.918-30.991c7.404-0.024,14.832-0.378,22.204,0.105
		c6.942,0.454,13.825,1.811,22.338,2.994c-0.589-3.363-1.212-7.052-1.886-10.732c-0.743-4.057-1.531-8.105-2.713-14.334
		c-3.983-2.936-9.651-7.114-15.523-11.444C678.209,227.081,661.779,223.95,646.556,230.642z M666.1,330.117
		c11.303,0,24.173,0.252,37.021-0.155c3.792-0.12,7.525-2.101,11.121-3.18c0-13.094,0-24.577,0-35.974
		c-20.459-8.95-20.459-8.95-47.317-8.701c-6.071,5.034-12.856,10.659-18.299,15.172c0,9.607,0,17.389,0,24.076
		C654.708,324.404,659.781,326.948,666.1,330.117z"/>
	<path fill="#222222" d="M1274.24,345.651c7.815,0,15.629,0,24.069,0c2.133-7.599,4.134-14.727,6.248-22.258
		c20.676-4.946,41.966,11.102,62.417-0.936c2.299,1.536,4.22,2.819,6.56,4.383c4.202-2.891,8.427-5.798,15.022-10.336
		c1.126-3.803,3.075-10.388,5.392-18.215c-8.978-5.761-17.252-11.07-23.587-15.136c-27.912-4.457-54.044-7.338-70.352-32.569
		c0-9.454,0-19.255,0-28.877c6.76-11.021,15.173-20.252,27.943-24.43c7.099-2.266,14.794,1.955,22.563-3.691
		c3.978-2.891,13.309-2.566,17.659,0.255c5.48,3.555,10.435,1.988,15.551,2.955c10.346,1.956,21.051,3.295,27.177,13.664
		c1.712,8.386-5.293,11.399-10.116,16.376c-9.244-2.583-18.512-6.303-28.1-7.545c-10.205-1.322-20.715-0.297-32.071-0.297
		c-3.036,6.423-5.957,12.603-9.59,20.289c13.668,3.502,22.482,14.67,37.342,12.946c3.16,3.776,6.676,7.979,8.731,10.434
		c20.482,3.635,36.599,9.467,44.923,31.193c0,4.19,0.125,11.521-0.025,18.847c-0.344,16.77-18.913,35.172-35.453,36.03
		c-14.919,0.774-30.315,5.278-44.536,2.739c-12.656-2.26-25.161-0.984-37.361-3.283c-5.164-0.973-8.182,5.694-14.126,1.221
		c-3.551-2.672-10.423-0.931-15.802-1.174C1274.559,347.375,1274.4,346.513,1274.24,345.651z"/>
	<path fill="#222222" d="M399.441,347.82c-12.349,6.886-25.81,3.899-38.937,4.58c-5.136,0.266-10.239,1.192-18.725,2.229
		c-4.207-0.896-12.035-3.461-19.998-3.991c-6.976-0.464-14.104,1.357-21.702-0.729c4.658-0.719,9.316-1.438,15.39-2.375
		c-3.018-2.652-5.267-6.208-7.148-6.023c-11.941,1.171-12.768-8.829-15.835-15.709c-3.927-8.808-6.395-18.267-12.198-27.051
		c1.53-12.978,3.651-25.921,4.422-38.944c0.764-12.916,0.167-25.912,0.167-39.04c1.698-1.614,3.482-3.31,6.565-6.239
		c6.785,1.276,14.704,2.765,23.068,4.337c0,25.251-0.349,49.235,0.208,73.198c0.173,7.43,1.11,15.833,4.798,21.909
		c3.568,5.877,9.483,12.527,15.311,15.07c6.987,3.049,15.299,7.204,23.908,4.716c6.026-1.742,11.878-4.084,18.744-6.486
		c0-10.155,0.56-19.268-0.16-28.278c-0.702-8.779,3.525-18.328-3.519-26.263c0.416-18.954,0.803-37.908,1.342-56.858
		c0.025-0.889,1.411-1.739,3.308-3.929c-8.144,0-15.265,0-25.934,0c15.017-5.399,28-5.116,49.332,0.144
		c0.755-2.672,1.847-6.538,2.604-9.215c7.123,3.531,10.419,5.165,16.487,8.173c-5.734,0.322-8.615,0.484-11.606,0.653
		c-5.41,6-6.212,13.314-6.019,21.192c0.332,13.57,0.285,27.159-0.031,40.73c-0.09,3.847-1.663,7.66-2.346,10.589
		C405.171,306.245,404.844,327.441,399.441,347.82z"/>
	<path fill="#222222" d="M905.984,342.074c-6.092,1.716-12.626,3.557-19.979,5.628c-0.813-0.77-2.513-2.378-4.776-4.519
		c0-17.32,0.475-35.159-0.146-52.959c-0.522-14.947-1.865-29.906-3.724-44.75c-1.172-9.36-7.359-15.55-18.44-18.538
		c-11.847,0-25.87,0-39.926,0c-1.508,18.427-3.558,36.307-4.274,54.24c-0.734,18.391-0.162,36.834-0.162,54.964
		c-2.888,1.054-5.023,1.834-7.976,2.912c3.128,1.499,5.524,2.648,8.28,3.969c-2.018,1.762-3.843,3.355-6.187,5.401
		c-5.355,0-11.469,0-18.443,0c-8.235-13.867-6.202-29.028-3.423-44.249c0.52-2.85,1.723-5.666,1.74-8.503
		c0.143-23.458,0.164-46.918-0.033-70.375c-0.023-2.708-1.608-5.402-2.687-8.786c5.892-10.455,18.448-11.454,28.924-15.749
		c2.498-1.024,6.452,1.506,11.03,2.754c18.001-7.634,50.403-3.433,62.159,13.354c10.251,14.638,19.469,30.298,19.254,49.382
		c-0.181,16.049,0.426,32.123-0.332,48.138c-0.214,4.533,3.977,7.597,1.984,12.46C907.121,331.058,907.053,335.948,905.984,342.074z
		"/>
	<path fill="#222222" d="M993.698,149.478c9.914-1.015,19.098-3.144,28.095-2.531c8.458,0.577,16.72,4.049,23.554,5.849
		c17.515,13.534,32.83,27.343,43.091,48.019c-0.636,15.199,6.388,32.071,4.099,49.807c-0.905,7.006-0.791,13.828-3.504,20.803
		c-2.451,6.3,0.502,13.676-3.595,20.812c-2.872,5.003-1.881,12.336-3.437,18.732c-2.303,9.469-7.028,15.969-13.225,22.44
		c-4.391,4.585-8.401,9.536-12.547,14.285c-0.145-0.145-1.018-1.017-1.89-1.89c-21.01,9.041-44.407,8.498-61.695,2.891
		c-21.112-6.848-37.825-23.292-44.718-44.857c-1.398-4.373-3.011-8.776-3.587-13.285c-0.621-4.857,1.384-10.514-0.415-14.672
		c-6.376-14.736-2.6-29.934-3.271-44.87c-0.595-13.226,10.64-43.069,20.37-52.426c5.289-5.086,5.412-13.946,15.099-16.314
		C982.96,160.599,988.47,153.489,993.698,149.478z M1029.884,156.258c-7.542,0.963-19.363-1.427-31.397,2.899
		c-7.047,2.533-10.636,8.938-17.846,10.696c-9.886,2.41-15.278,10.407-19.468,19.187c-7.563,15.85-13.335,32.176-13.245,50.027
		c0.045,8.891,1.517,17.557,2.945,26.346c1.593,9.808,2.153,20.047,4.581,29.773c4.549,18.219,13.697,33.982,31.362,41.973
		c13.393,6.058,27.929,8.744,43.046,7.912c17.113-0.943,40.35-15.404,43.227-31.512c2.668-14.943,8.283-29.418,8.179-44.868
		c-0.091-13.572-0.591-27.176,0.172-40.706c0.555-9.839-2.523-18.505-5.599-27.382c-0.943-2.721-1.7-5.507-2.962-9.638
		C1063.198,178.151,1052.428,164.264,1029.884,156.258z"/>
	<path fill="#222222" d="M287.993,210.957c-13.148,0-26.297,0-39.445,0c6.135-4.338,13.007-2.704,19.581-3.007
		c6.59-0.304,13.205-0.067,19.81-0.067C287.956,208.908,287.974,209.932,287.993,210.957z"/>
	<path fill="#222222" d="M1513.993,348.026c-13.148,0-26.297,0-39.445,0C1487.569,343.665,1500.785,345.587,1513.993,348.026z"/>
	<path fill="#222222" d="M300.316,208.496c10.68,0,21.359,0,32.039,0C321.835,212.892,311.07,210.935,300.316,208.496z"/>
	<path fill="#222222" d="M50.974,351.692c-10.68,0-21.36,0-32.434,0c0.67-1.368,1.073-2.942,1.498-2.948
		c10.258-0.137,20.519-0.107,30.78-0.107C50.869,349.656,50.922,350.674,50.974,351.692z"/>
	<path fill="#222222" d="M562.907,348.637c-9.983,4.258-19.772,3.728-29.721,0.706c4.999-0.235,9.997-0.56,14.999-0.68
		C553.09,348.545,557.999,348.637,562.907,348.637z"/>
	<path fill="#222222" d="M1081.813,352.003c-4.567,0-7.395,0-10.69,0c-0.41-1.557-0.833-3.161-1.271-4.824
		C1072.998,347.039,1080.885,349.307,1081.813,352.003z"/>
	<path fill="#222222" d="M1540,347.993c-5.744,0-11.489,0-17.641,0c0.688-1.383,1.083-2.936,1.527-2.951
		c5.328-0.169,10.663-0.109,15.997-0.109C1539.922,345.953,1539.961,346.973,1540,347.993z"/>
	<path fill="#222222" d="M80.59,351.699c-4.511,0-9.021,0-13.532,0c-0.047-0.763-0.094-1.525-0.14-2.288
		c4.47-0.296,8.94-0.591,13.411-0.886C80.416,349.583,80.503,350.641,80.59,351.699z"/>
	<path fill="#222222" d="M1444.245,345.859c4.939,0,9.878,0,14.816,0c0,0.617,0,1.235,0,1.852c-4.939,0-9.878,0-14.816,0
		C1444.245,347.094,1444.245,346.477,1444.245,345.859z"/>
	<path fill="#222222" d="M158.938,349.563c4.939,0,9.877,0,14.816,0c0,0.617,0,1.235,0,1.852c-4.939,0-9.877,0-14.816,0
		C158.938,350.798,158.938,350.181,158.938,349.563z"/>
	<path fill="#222222" d="M599.721,349.563c4.939,0,9.877,0,14.816,0c0,0.617,0,1.235,0,1.852c-4.939,0-9.877,0-14.816,0
		C599.721,350.798,599.721,350.181,599.721,349.563z"/>
	<path fill="#222222" d="M1095.76,344.63c0,3.205,0,4.836,0,7.09c-3.567,0-6.831,0-12.699,0
		C1088.164,348.871,1091.072,347.247,1095.76,344.63z"/>
	<path fill="#222222" d="M981.386,344.785c-0.185,2.376-0.358,4.589-0.548,7.037c-2.224,0.187-3.832,0.322-6.3,0.53
		c-0.246-2.242-0.468-4.263-0.766-6.974C976.798,345.142,979.011,344.97,981.386,344.785z"/>
	<path fill="#222222" d="M485.617,349.279c4.511,0,9.021,0,13.532,0c0.041,0.754,0.082,1.508,0.123,2.261
		c-4.566,0.313-9.132,0.626-13.698,0.94C485.588,351.414,485.602,350.347,485.617,349.279z"/>
	<path fill="#222222" d="M943.614,442.986c1.82-3.166,3.64-6.332,5.696-9.907C954.788,439.721,948.447,441.63,943.614,442.986z"/>
	<path fill="#222222" d="M10.776,208.809c4.939,0,9.877,0,14.816,0c0,0.617,0,1.235,0,1.852c-4.939,0-9.877,0-14.816,0
		C10.776,210.044,10.776,209.426,10.776,208.809z"/>
	<path fill="#222222" d="M155.291,214.559c-3.601,0.171-7.202,0.341-10.803,0.512c-0.072-0.825-0.145-1.651-0.217-2.476
		c3.61-0.472,7.22-0.944,10.831-1.417C155.165,212.305,155.228,213.432,155.291,214.559z"/>
	<path fill="#222222" d="M400.269,349.094c2.852,0,6.27,0,10.421,0C404.544,352.536,404.544,352.536,400.269,349.094z"/>
	<path fill="#222222" d="M280.469,351.703c-3.285,0-6.571,0-9.857,0c-0.045-0.645-0.09-1.291-0.135-1.936
		c3.318-0.448,6.636-0.896,9.955-1.344C280.444,349.515,280.456,350.609,280.469,351.703z"/>
	<path fill="#222222" d="M262.078,351.703c-3.271,0-6.542,0-9.814,0c-0.073-0.627-0.146-1.253-0.22-1.88
		c3.236-0.467,6.472-0.934,9.708-1.401C261.861,349.515,261.969,350.609,262.078,351.703z"/>
	<path fill="#222222" d="M147.123,351.703c-3.286,0-6.571,0-9.857,0c-0.045-0.645-0.09-1.291-0.135-1.936
		c3.318-0.448,6.636-0.896,9.955-1.344C147.098,349.515,147.11,350.609,147.123,351.703z"/>
	<path fill="#222222" d="M421.926,349.563c2.469,0,4.939,0,7.408,0c0,0.617,0,1.235,0,1.852c-2.469,0-4.939,0-7.408,0
		C421.926,350.798,421.926,350.181,421.926,349.563z"/>
	<path fill="#222222" d="M295.31,351.709c-2.048,0-4.096,0-6.144,0c-0.083-0.608-0.167-1.216-0.25-1.824
		c2.063-0.449,4.126-0.899,6.188-1.348C295.173,349.594,295.241,350.652,295.31,351.709z"/>
	<path fill="#222222" d="M6.393,210.955c-2.048,0-4.096,0-6.144,0c-0.083-0.608-0.167-1.216-0.25-1.824
		c2.063-0.449,4.126-0.899,6.188-1.348C6.257,208.84,6.325,209.897,6.393,210.955z"/>
	<path fill="#222222" d="M944.83,385.092c0-2.048,0-4.096,0-6.143c0.587-0.095,1.174-0.191,1.761-0.286
		c0.482,2.02,0.964,4.039,1.446,6.059C946.968,384.844,945.899,384.968,944.83,385.092z"/>
	<path fill="#222222" d="M1462.766,345.859c2.469,0,4.939,0,7.408,0c0,0.617,0,1.235,0,1.852c-2.469,0-4.939,0-7.408,0
		C1462.766,347.094,1462.766,346.477,1462.766,345.859z"/>
	<path fill="#222222" d="M947.27,452.937c0,2.048,0,4.096,0,6.143c-0.587,0.095-1.174,0.191-1.761,0.286
		c-0.482-2.02-0.964-4.039-1.446-6.059C945.132,453.184,946.201,453.061,947.27,452.937z"/>
	<path fill="#222222" d="M347.166,210.955c-2.048,0-4.096,0-6.144,0c-0.083-0.608-0.167-1.216-0.25-1.824
		c2.063-0.449,4.126-0.899,6.188-1.348C347.03,208.84,347.098,209.898,347.166,210.955z"/>
	<path fill="#222222" d="M422.512,208.515c2.048,0,4.096,0,6.144,0c0.096,0.587,0.191,1.174,0.286,1.761
		c-2.02,0.482-4.039,0.964-6.059,1.446C422.76,210.653,422.636,209.584,422.512,208.515z"/>
	<path fill="#222222" d="M969.494,345.612c0,2.048,0,4.096,0,6.143c-0.608,0.083-1.216,0.167-1.824,0.25
		c-0.449-2.063-0.899-4.125-1.348-6.188C967.379,345.749,968.437,345.68,969.494,345.612z"/>
	<path fill="#222222" d="M589.843,352.341c0-1.235,0-2.469,0-3.704c0.412,0,0.823,0,1.235,0c0,1.235,0,2.469,0,3.704
		C590.667,352.341,590.255,352.341,589.843,352.341z"/>
	<path fill="#222222" d="M944.586,48.944c-0.861,1.009-1.722,2.018-2.582,3.026c-0.389-0.389-0.779-0.779-1.168-1.168
		c1.009-0.861,2.018-1.721,3.027-2.582C944.104,48.462,944.345,48.703,944.586,48.944z"/>
	<path fill="#222222" d="M919.504,352.341c0-1.235,0-2.469,0-3.704c0.411,0,0.823,0,1.234,0c0,1.235,0,2.469,0,3.704
		C920.327,352.341,919.916,352.341,919.504,352.341z"/>
	<path fill="#222222" d="M960.249,352.341c0-1.235,0-2.469,0-3.704c0.411,0,0.823,0,1.234,0c0,1.235,0,2.469,0,3.704
		C961.072,352.341,960.661,352.341,960.249,352.341z"/>
	<path fill="#222222" d="M949.137,537.544c0-1.235,0-2.469,0-3.704c0.411,0,0.823,0,1.234,0c0,1.235,0,2.469,0,3.704
		C949.96,537.544,949.548,537.544,949.137,537.544z"/>
	<path fill="#222222" d="M1104.707,352.341c0-1.235,0-2.469,0-3.704c0.411,0,0.823,0,1.234,0c0,1.235,0,2.469,0,3.704
		C1105.53,352.341,1105.119,352.341,1104.707,352.341z"/>
	<path fill="#222222" d="M951.606,521.493c-1.235,0-2.469,0-3.704,0c0-0.411,0-0.823,0-1.235c1.235,0,2.469,0,3.704,0
		C951.606,520.67,951.606,521.082,951.606,521.493z"/>
	<path fill="#222222" d="M943.81,48.273c0.861-1.009,1.721-2.018,2.582-3.027c0.389,0.389,0.779,0.779,1.168,1.168
		c-1.009,0.861-2.018,1.721-3.026,2.582C944.292,48.756,944.051,48.515,943.81,48.273z"/>
	<path fill="#222222" d="M950.371,474.575c0,1.235,0,2.469,0,3.704c-0.411,0-0.823,0-1.234,0c0-1.235,0-2.469,0-3.704
		C949.548,474.575,949.96,474.575,950.371,474.575z"/>
	<path fill="#222222" d="M940.494,23.915c1.235,0,2.469,0,3.704,0c0,0.412,0,0.823,0,1.235c-1.235,0-2.469,0-3.704,0
		C940.494,24.738,940.494,24.327,940.494,23.915z"/>
	<path fill="#222222" d="M946.667,393.086c0,1.235,0,2.469,0,3.704c-0.411,0-0.823,0-1.234,0c0-1.235,0-2.469,0-3.704
		C945.844,393.086,946.256,393.086,946.667,393.086z"/>
	<path fill="#222222" d="M945.433,407.902c0-1.235,0-2.469,0-3.704c0.411,0,0.823,0,1.234,0c0,1.235,0,2.469,0,3.704
		C946.256,407.902,945.844,407.902,945.433,407.902z"/>
	<path fill="#222222" d="M944.198,127.629c1.235,0,2.469,0,3.704,0c0,0.412,0,0.823,0,1.235c-1.235,0-2.469,0-3.704,0
		C944.198,128.452,944.198,128.04,944.198,127.629z"/>
	<path fill="#222222" d="M513.293,348.637c0,1.235,0,2.469,0,3.704c-0.412,0-0.823,0-1.235,0c0-1.235,0-2.469,0-3.704
		C512.47,348.637,512.881,348.637,513.293,348.637z"/>
	<path fill="#222222" d="M946.667,152.322c0,1.235,0,2.469,0,3.704c-0.411,0-0.823,0-1.234,0c0-1.235,0-2.469,0-3.704
		C945.844,152.322,946.256,152.322,946.667,152.322z"/>
	<path fill="#222222" d="M473.783,349.872c1.235,0,2.469,0,3.704,0c0,0.412,0,0.823,0,1.235c-1.235,0-2.469,0-3.704,0
		C473.783,350.695,473.783,350.283,473.783,349.872z"/>
	<path fill="#222222" d="M463.006,348.249c1.009,0.861,2.018,1.721,3.026,2.582c-0.389,0.389-0.779,0.779-1.168,1.168
		c-0.861-1.009-1.721-2.018-2.582-3.026C462.524,348.732,462.765,348.49,463.006,348.249z"/>
	<path fill="#222222" d="M416.987,348.637c0,1.235,0,2.469,0,3.704c-0.412,0-0.823,0-1.235,0c0-1.235,0-2.469,0-3.704
		C416.164,348.637,416.576,348.637,416.987,348.637z"/>
	<path fill="#222222" d="M191.04,348.637c0,1.235,0,2.469,0,3.704c-0.412,0-0.823,0-1.235,0c0-1.235,0-2.469,0-3.704
		C190.217,348.637,190.629,348.637,191.04,348.637z"/>
	<path fill="#222222" d="M94.735,348.637c0,1.235,0,2.469,0,3.704c-0.412,0-0.823,0-1.235,0c0-1.235,0-2.469,0-3.704
		C93.911,348.637,94.323,348.637,94.735,348.637z"/>
	<path fill="#222222" d="M46.582,207.883c0,1.235,0,2.469,0,3.704c-0.412,0-0.823,0-1.235,0c0-1.235,0-2.469,0-3.704
		C45.759,207.883,46.17,207.883,46.582,207.883z"/>
	<path fill="#222222" d="M53.99,207.883c0,1.235,0,2.469,0,3.704c-0.412,0-0.823,0-1.235,0c0-1.235,0-2.469,0-3.704
		C53.167,207.883,53.578,207.883,53.99,207.883z"/>
	<path fill="#222222" d="M70.041,210.352c-1.235,0-2.469,0-3.704,0c0-0.412,0-0.823,0-1.235c1.235,0,2.469,0,3.704,0
		C70.041,209.529,70.041,209.941,70.041,210.352z"/>
	<path fill="#222222" d="M154.846,211.252c0.861-1.009,1.721-2.018,2.582-3.026c0.389,0.389,0.779,0.779,1.168,1.168
		c-1.009,0.861-2.018,1.721-3.027,2.582C155.328,211.734,155.087,211.493,154.846,211.252z"/>
	<path fill="#222222" d="M1121.993,346.168c1.235,0,2.469,0,3.704,0c0,0.412,0,0.823,0,1.235c-1.235,0-2.469,0-3.704,0
		C1121.993,346.991,1121.993,346.579,1121.993,346.168z"/>
	<path fill="#222222" d="M942.963,344.933c0,1.235,0,2.469,0,3.704c-0.411,0-0.823,0-1.234,0c0-1.235,0-2.469,0-3.704
		C942.14,344.933,942.552,344.933,942.963,344.933z"/>
	<path fill="#222222" d="M1037.816,333.457c-14.126,5.397-29.076,6.319-47.601-3.071c-4.651-5.651-12.275-14.915-19.198-23.328
		c-3.498-26.825-12.17-52.271-6.555-78.413c3.451-10.868,6.902-21.736,11.284-35.538c9.477-7.627,17.599-21.337,33.518-26.805
		c6.755-2.32,11.174-2.688,17.908,0.027c23.936,9.649,37.371,27.223,43.013,51.718c0.503,2.184,1.685,4.211,2.717,6.708
		c-5.38,5.197-2.849,10.826,0.198,15.324c-1.105,6.039-3.177,11.216-2.754,16.18c1.395,16.368-5.367,31.227-8.824,46.473
		C1058.869,314.427,1050.481,324.95,1037.816,333.457z M1028.196,330.633c6.963-5.876,13.702-11.564,19.715-16.639
		c0-3.31-0.66-5.505,0.101-6.954c9.318-17.738,12.396-36.598,11.09-56.44c-0.484-7.36-0.202-14.782-0.053-22.171
		c0.35-17.399-4.483-32.584-18.125-44.272c-3.265-2.797-6.13-6.061-9.3-9.231c-10.182,0-20.481,0-30.393,0
		c-5.172,5.172-10.069,9.865-14.675,14.829c-1.052,1.134-0.682,3.532-1.677,4.785c-14.184,17.869-7.609,40.589-14.188,60.208
		c4.15,12.901,4.007,26.728,7.387,39.527c3.729,14.124,9.027,29.433,27.384,32.285
		C1012.038,333.855,1020.467,328.263,1028.196,330.633z"/>
</g>
</svg>
