<?xml version="1.0" encoding="utf-8"?>
<!-- Generator: Adobe Illustrator 17.0.0, SVG Export Plug-In . SVG Version: 6.00 Build 0)  -->
<!DOCTYPE svg PUBLIC "-//W3C//DTD SVG 1.1//EN" "http://www.w3.org/Graphics/SVG/1.1/DTD/svg11.dtd">
<svg version="1.1" id="Layer_1" xmlns="http://www.w3.org/2000/svg" xmlns:xlink="http://www.w3.org/1999/xlink" x="0px" y="0px"
	 width="56px" height="56px" viewBox="0 0 56 56" enable-background="new 0 0 56 56" xml:space="preserve">
<path fill="#BEC4C4" d="M52.61,12.735c-1.811,0.803-3.757,1.346-5.8,1.59c2.085-1.25,3.686-3.229,4.44-5.587
	c-1.951,1.157-4.112,1.998-6.412,2.451C42.996,9.226,40.371,8,37.467,8c-5.577,0-10.098,4.521-10.098,10.098
	c0,0.792,0.089,1.562,0.261,2.301c-8.392-0.421-15.833-4.441-20.814-10.551c-0.869,1.491-1.367,3.226-1.367,5.077
	c0,3.503,1.783,6.594,4.492,8.405c-1.655-0.052-3.212-0.507-4.574-1.263c-0.001,0.042-0.001,0.084-0.001,0.127
	c0,4.893,3.481,8.974,8.1,9.902c-0.847,0.231-1.74,0.354-2.66,0.354c-0.651,0-1.283-0.063-1.9-0.181
	c1.285,4.012,5.014,6.931,9.433,7.013c-3.456,2.708-7.81,4.323-12.541,4.323c-0.815,0-1.619-0.048-2.409-0.141
	C7.859,46.328,13.167,48,18.869,48C37.444,48,47.6,32.613,47.6,19.269c0-0.438-0.01-0.873-0.029-1.306
	C49.544,16.539,51.256,14.76,52.61,12.735z"/>
</svg>
