<?xml version="1.0" encoding="utf-8"?>
<!-- Generator: Adobe Illustrator 17.0.0, SVG Export Plug-In . SVG Version: 6.00 Build 0)  -->
<!DOCTYPE svg PUBLIC "-//W3C//DTD SVG 1.1//EN" "http://www.w3.org/Graphics/SVG/1.1/DTD/svg11.dtd">
<svg version="1.1" id="Layer_1" xmlns="http://www.w3.org/2000/svg" xmlns:xlink="http://www.w3.org/1999/xlink" x="0px" y="0px"
	 width="72px" height="72px" viewBox="0 0 72 72" enable-background="new 0 0 72 72" xml:space="preserve">
<g id="g9361_7_" transform="translate(39.067803,161)">
	<rect id="rect8591_7_" x="-38.736" y="-136.898" fill="#FFFFFF" width="70.983" height="30.814"/>
	<g id="g8585_7_" transform="translate(-39.567803,-161)">
		
			<path id="path8589_7_" sodipodi:nodetypes="sscccsscccsscccsscssccccccccccssssssssssscsscccssssssssssssccsssssssssssscsscsccssssscccsssssssscssscssssssssssccssssssssscssssscsssssssssssscsssssscsssssssssscsssssssssssssssssssss" inkscape:connector-curvature="0" fill="#F00101" d="
			M3.443,59.683c-0.961-0.37-2.075-1.425-2.576-2.441L0.5,56.497V36V15.503l0.367-0.745c0.515-1.046,1.613-2.072,2.618-2.448
			L4.312,12H36.5h32.188l0.854,0.319c1.026,0.384,2.157,1.448,2.632,2.478l0.326,0.706V36v20.497l-0.326,0.706
			c-0.476,1.03-1.606,2.094-2.632,2.478L68.688,60l-32.231-0.008C4.483,59.984,4.22,59.982,3.443,59.683z M71.68,39.205V24.82H36.5
			H1.32v14.385V53.59H36.5h35.18V39.205z M57.092,51.503c-0.286-0.213-0.787-2.951-0.994-5.438c-0.101-1.21-0.152-1.376-0.538-1.737
			c-0.613-0.572-0.509-1.323,0.183-1.323c0.261,0,0.415-0.504,0.525-1.714c0.147-1.617,0.824-4.149,1.434-5.358
			c0.735-1.459,2.624-3.064,3.606-3.064c0.322,0,1.187,0.281,2.248,0.731c0.164,0.069,0.486,0.202,0.717,0.295
			c0.54,0.217,1.098,1.413,1.227,2.629c0.114,1.079-0.125,2.514-0.591,3.556c-0.72,1.609-3.777,4.338-5.294,4.727L58.86,45
			l0.004,1.425c0.006,1.768,0.217,3.45,0.539,4.293c0.135,0.353,0.196,0.691,0.137,0.75C59.419,51.59,57.25,51.62,57.092,51.503
			L57.092,51.503z M60.414,41.358c0.609-0.579,1.278-1.378,1.486-1.776c0.459-0.878,0.714-2.335,0.592-3.377
			c-0.14-1.189-0.271-1.275-0.887-0.579c-1.019,1.15-1.631,2.497-2.097,4.615c-0.416,1.889-0.459,2.169-0.328,2.169
			C59.249,42.41,59.805,41.937,60.414,41.358z M41.599,43.512c-0.096-1.519-0.208-2.815-0.248-2.88
			c-0.04-0.065-0.593-0.165-1.228-0.223c-1.307-0.118-1.536-0.244-1.536-0.841c0-0.668,0.479-0.905,1.599-0.79l0.935,0.096
			l-0.007-0.58c-0.004-0.319-0.071-1.083-0.149-1.698c-0.573-4.503-0.68-7.698-0.292-8.72c0.119-0.314,0.239-0.373,0.747-0.373
			c0.584,0,1.959,0.568,2.159,0.893c0.052,0.084,0.128,1.981,0.169,4.214c0.096,5.23,0.097,4.879-0.023,5.44
			c-0.092,0.431-0.068,0.484,0.222,0.484c0.268,0,0.317-0.073,0.278-0.41c-0.041-0.348,0.012-0.417,0.35-0.456
			c0.315-0.037,0.601,0.147,1.379,0.888c0.539,0.514,0.981,1.013,0.981,1.11c0,0.214-0.529,0.333-2.639,0.595l-0.627,0.078
			l0.074,2.806c0.084,3.182,0.171,2.963-1.214,3.071l-0.755,0.059L41.599,43.512z M19.746,45.901
			c-0.05-0.13-0.092-0.348-0.094-0.484c-0.002-0.137-0.175-0.651-0.385-1.143c-0.426-0.997-1.163-3.331-1.413-4.472
			c-0.281-1.279-0.607-2.336-0.695-2.248c-0.047,0.046-0.139,1.41-0.206,3.03c-0.066,1.62-0.209,3.247-0.317,3.616l-0.196,0.671
			l-1.472,0.136l-1.472,0.136l-0.33-0.414c-0.182-0.228-0.751-1.112-1.265-1.965c-0.514-0.853-0.954-1.531-0.977-1.508
			c-0.023,0.023,0.05,0.7,0.162,1.505c0.113,0.805,0.171,1.55,0.13,1.656c-0.131,0.341-1.605,0.878-2.352,0.857
			c-0.688-0.02-0.835-0.305-1.056-2.057c-0.369-2.931-0.41-3.784-0.302-6.309l0.107-2.494l0.657-0.176
			c1.057-0.283,2.232-0.229,2.554,0.118c0.15,0.161,0.871,1.453,1.601,2.87l1.328,2.576l0.188-1.416
			c0.283-2.134,1.252-5.348,1.917-6.364c0.249-0.38,0.272-0.384,1.532-0.288c1.502,0.116,1.727,0.264,2.029,1.345
			c0.673,2.41,0.902,3.377,1.581,6.668c0.163,0.79,0.396,1.721,0.519,2.068c0.123,0.348,0.223,0.756,0.223,0.907
			c0,0.151,0.168,0.789,0.373,1.416c0.377,1.154,0.453,1.532,0.275,1.353c-0.054-0.054-0.188-0.023-0.299,0.068
			c-0.159,0.132-1.73,0.548-2.159,0.571C19.879,46.134,19.796,46.031,19.746,45.901L19.746,45.901z M25.721,45.824
			c-0.708-0.167-1.015-0.329-2.019-1.069c-1.154-0.851-1.338-1.358-1.358-3.761c-0.021-2.433,0.071-3.313,0.481-4.608
			c0.376-1.188,1.193-2.19,2.549-3.123c0.921-0.634,1.004-0.638,2.823-0.139c0.691,0.189,0.911,0.326,1.095,0.683
			c0.473,0.915,0.629,5.976,0.205,6.662c-0.147,0.239-2.402,0.252-3.431,0.021c-0.32-0.072-0.619-0.094-0.664-0.049
			c-0.045,0.045-0.08,0.557-0.079,1.138c0.004,1.252,0.323,2.069,1.046,2.678c0.441,0.371,0.57,0.405,1.177,0.315
			c0.375-0.056,0.854-0.203,1.064-0.327c0.518-0.305,1.894-0.035,2.362,0.464l0.325,0.346l-0.79,0.3
			C29.058,45.903,26.942,46.111,25.721,45.824L25.721,45.824z M26.661,37.342c0-0.82-0.059-1.491-0.132-1.491
			c-0.154,0-0.735,1.378-0.912,2.162c-0.107,0.474-0.082,0.556,0.2,0.67C26.625,39.009,26.661,38.951,26.661,37.342z M35.233,45.588
			c-2.208-0.281-3.002-0.695-3.913-2.04c-0.675-0.996-0.712-1.105-0.794-2.321c-0.071-1.05-0.024-1.515,0.263-2.618
			c0.857-3.295,1.148-3.879,2.79-5.588c0.748-0.778,0.933-0.896,1.406-0.893c0.3,0.002,0.838,0.136,1.195,0.298
			c0.357,0.162,0.73,0.295,0.829,0.295c0.099,0,0.335,0.145,0.525,0.322c0.335,0.312,0.343,0.373,0.241,1.972
			c-0.057,0.907-0.165,1.724-0.24,1.813c-0.075,0.09-0.154,1.04-0.176,2.112l-0.041,1.948l-0.84,0.235
			c-0.742,0.208-0.968,0.211-1.936,0.026c-1.273-0.242-1.369-0.184-1.275,0.771c0.076,0.768,0.87,2.058,1.454,2.359
			c0.827,0.428,2.513,0.15,2.927-0.481c0.276-0.422,0.566-0.433,1.198-0.048c0.624,0.381,0.658,0.917,0.075,1.188
			C37.497,45.6,36.587,45.76,35.233,45.588L35.233,45.588z M34.915,39.242c0.049-0.184,0.088-1.073,0.086-1.975
			c-0.004-1.571-0.014-1.622-0.237-1.21c-0.287,0.529-1.097,2.845-1.097,3.135c0,0.248,0.223,0.357,0.765,0.374
			C34.719,39.575,34.85,39.487,34.915,39.242L34.915,39.242z M48.924,45.321c-0.768-0.538-1.409-2.795-1.674-5.9
			c-0.146-1.707-0.124-2.531,0.074-2.852c0.14-0.227,0.94-0.124,1.656,0.213c1.324,0.624,1.284,0.523,1.413,3.582
			c0.131,3.099,0.211,3.73,0.461,3.646c0.33-0.11,1.543-2.063,1.727-2.78c0.105-0.411,0.17-1.452,0.152-2.445
			c-0.044-2.394,0.117-2.546,1.847-1.745c1.379,0.638,1.389,0.658,1.18,2.316c-0.188,1.488-0.385,2.088-0.813,2.479
			c-0.147,0.134-0.423,0.537-0.612,0.894c-0.189,0.357-0.433,0.65-0.543,0.65c-0.109,0-0.227,0.101-0.26,0.224
			c-0.054,0.199-0.044,0.199,0.097,0c0.087-0.123,0.158-0.157,0.158-0.075c0,0.328-1.458,1.727-1.946,1.867
			C51.054,45.621,49.288,45.576,48.924,45.321L48.924,45.321z"/>
		
			<path id="path8587_7_" sodipodi:nodetypes="cssssssssssscsscccssssssssssssccsssscssssssssscssssssscccsscssssscssscsscsssssssscscsssssssssssssscsccssssssssssscsssssscssssssssssscssssssssssscsssssssssss" inkscape:connector-curvature="0" fill="#030303" d="
			M57.092,51.503c-0.279-0.207-0.786-3-1.001-5.514c-0.096-1.129-0.154-1.308-0.533-1.662c-0.613-0.573-0.506-1.321,0.189-1.321
			c0.268,0,0.403-0.388,0.499-1.439c0.172-1.878,0.813-4.359,1.455-5.634c0.735-1.459,2.624-3.064,3.606-3.064
			c0.322,0,1.187,0.281,2.248,0.731c0.164,0.069,0.486,0.202,0.717,0.295c0.29,0.117,0.528,0.408,0.774,0.95
			c0.649,1.429,0.628,3.206-0.059,5.034c-0.607,1.616-3.767,4.516-5.368,4.926L58.86,45l0.004,1.425
			c0.006,1.768,0.217,3.45,0.539,4.293c0.135,0.353,0.196,0.691,0.137,0.75C59.419,51.59,57.25,51.62,57.092,51.503L57.092,51.503z
			 M60.414,41.358c0.617-0.586,1.284-1.39,1.506-1.815c0.464-0.887,0.696-2.249,0.569-3.341c-0.14-1.207-0.267-1.275-0.943-0.508
			c-1.035,1.176-1.575,2.445-2.16,5.076c-0.137,0.615-0.282,1.235-0.323,1.379C58.925,42.635,59.303,42.414,60.414,41.358
			L60.414,41.358z M41.599,43.512c-0.096-1.519-0.208-2.815-0.248-2.88c-0.04-0.065-0.593-0.165-1.228-0.223
			c-1.307-0.118-1.536-0.244-1.536-0.841c0-0.668,0.479-0.905,1.599-0.79l0.935,0.096l-0.007-0.58
			c-0.004-0.319-0.071-1.083-0.149-1.698c-0.573-4.503-0.68-7.698-0.292-8.72c0.119-0.314,0.239-0.373,0.747-0.373
			c0.585,0,1.959,0.568,2.16,0.894c0.074,0.12,0.199,4.577,0.244,8.721c0.003,0.246-0.042,0.665-0.099,0.932
			c-0.092,0.431-0.068,0.484,0.222,0.484c0.268,0,0.317-0.073,0.278-0.41c-0.041-0.349,0.012-0.417,0.353-0.456
			c0.321-0.037,0.602,0.147,1.411,0.925c0.555,0.534,0.961,1.02,0.901,1.08c-0.227,0.227-1.247,0.497-1.892,0.501
			c-1.427,0.009-1.338-0.202-1.254,2.979c0.084,3.174,0.17,2.956-1.215,3.063l-0.755,0.059L41.599,43.512z M19.663,45.429
			c-0.097-0.389-0.339-1.077-0.538-1.528c-0.388-0.881-0.889-2.545-1.413-4.696c-0.18-0.738-0.38-1.44-0.445-1.559
			c-0.168-0.309-0.267,0.669-0.357,3.497c-0.041,1.312-0.164,2.687-0.273,3.056l-0.198,0.671l-1.472,0.136l-1.472,0.136l-0.33-0.414
			c-0.182-0.228-0.751-1.112-1.265-1.965s-0.953-1.532-0.976-1.509c-0.023,0.023,0.046,0.672,0.152,1.442
			c0.106,0.771,0.162,1.517,0.125,1.659c-0.102,0.39-1.507,0.942-2.337,0.918c-0.689-0.02-0.835-0.305-1.054-2.057
			c-0.374-2.987-0.407-3.68-0.3-6.249l0.106-2.554l0.656-0.175c1.056-0.282,2.231-0.228,2.553,0.118
			c0.15,0.161,0.871,1.453,1.601,2.87l1.328,2.576l0.188-1.416c0.277-2.087,1.103-4.881,1.814-6.139l0.28-0.494l1.316,0.032
			c1.083,0.027,1.368,0.084,1.61,0.326c0.374,0.374,1.08,3.048,2.119,8.023c0.124,0.592,0.323,1.355,0.443,1.696
			c0.12,0.34,0.218,0.743,0.218,0.894s0.168,0.789,0.373,1.416c0.377,1.154,0.453,1.532,0.275,1.353
			c-0.054-0.054-0.188-0.023-0.299,0.068c-0.159,0.132-1.728,0.547-2.157,0.571C19.882,46.134,19.76,45.818,19.663,45.429
			L19.663,45.429z M25.721,45.824c-0.708-0.167-1.015-0.329-2.019-1.069c-1.146-0.845-1.339-1.368-1.362-3.686
			c-0.023-2.372,0.083-3.404,0.477-4.656c0.367-1.166,1.247-2.255,2.52-3.118c0.769-0.521,0.837-0.539,1.623-0.425
			c1.401,0.203,2.094,0.482,2.33,0.935c0.464,0.892,0.625,5.987,0.21,6.657c-0.148,0.239-2.605,0.248-3.428,0.012
			c-0.273-0.078-0.554-0.107-0.625-0.064c-0.07,0.043-0.126,0.561-0.125,1.151c0.004,1.269,0.32,2.083,1.046,2.694
			c0.441,0.371,0.57,0.405,1.177,0.315c0.375-0.056,0.854-0.203,1.064-0.327c0.518-0.305,1.894-0.035,2.362,0.464l0.325,0.346
			l-0.79,0.3C29.058,45.903,26.942,46.111,25.721,45.824L25.721,45.824z M26.69,38.273c0.071-0.863-0.04-2.422-0.173-2.422
			c-0.143,0-0.729,1.408-0.899,2.162c-0.107,0.474-0.082,0.556,0.2,0.67C26.469,38.946,26.641,38.865,26.69,38.273z M35.233,45.588
			c-2.208-0.281-3.002-0.695-3.913-2.04c-0.684-1.009-0.711-1.092-0.797-2.396c-0.061-0.931-0.03-1.513,0.102-1.872
			c0.105-0.287,0.297-1.007,0.426-1.6c0.46-2.11,0.956-3.021,2.548-4.679c0.729-0.759,0.915-0.876,1.387-0.873
			c0.3,0.002,0.838,0.136,1.195,0.298c0.357,0.162,0.73,0.295,0.829,0.295c0.099,0,0.335,0.145,0.525,0.322
			c0.335,0.312,0.343,0.373,0.241,1.972c-0.057,0.907-0.165,1.724-0.24,1.813c-0.075,0.09-0.154,1.04-0.176,2.112l-0.041,1.948
			l-0.84,0.235c-0.742,0.208-0.968,0.211-1.936,0.026c-1.212-0.231-1.318-0.185-1.322,0.58c-0.003,0.595,0.529,1.649,1.142,2.262
			c0.428,0.428,0.611,0.506,1.191,0.506c0.955,0,1.827-0.291,2.094-0.699c0.276-0.422,0.566-0.433,1.198-0.048
			c0.751,0.458,0.666,0.93-0.237,1.319C37.343,45.614,36.48,45.747,35.233,45.588L35.233,45.588z M34.915,39.242
			c0.049-0.184,0.088-1.073,0.086-1.975c-0.004-1.571-0.014-1.622-0.237-1.21c-0.287,0.529-1.097,2.845-1.097,3.135
			c0,0.248,0.223,0.357,0.765,0.374C34.719,39.575,34.85,39.487,34.915,39.242L34.915,39.242z M48.926,45.322
			c-0.775-0.543-1.409-2.813-1.688-6.043c-0.136-1.573-0.11-2.393,0.086-2.71c0.14-0.227,0.94-0.124,1.656,0.213
			c1.324,0.624,1.284,0.523,1.413,3.582c0.131,3.099,0.211,3.73,0.461,3.646c0.33-0.11,1.543-2.063,1.727-2.78
			c0.101-0.393,0.172-1.345,0.16-2.115c-0.013-0.77-0.024-1.553-0.024-1.739c0-0.428,0.286-0.779,0.635-0.779
			c0.375,0,2.143,0.835,2.384,1.127c0.163,0.196,0.167,0.493,0.023,1.633c-0.188,1.488-0.385,2.088-0.813,2.479
			c-0.147,0.134-0.423,0.537-0.612,0.894c-0.189,0.357-0.433,0.65-0.543,0.65c-0.109,0-0.227,0.101-0.26,0.224
			c-0.054,0.199-0.044,0.199,0.097,0c0.087-0.123,0.158-0.157,0.158-0.075c0,0.328-1.458,1.727-1.946,1.867
			C51.056,45.62,49.288,45.576,48.926,45.322L48.926,45.322z"/>
	</g>
</g>
</svg>
