<?xml version="1.0" encoding="utf-8"?>
<!-- Generator: Adobe Illustrator 17.0.0, SVG Export Plug-In . SVG Version: 6.00 Build 0)  -->
<!DOCTYPE svg PUBLIC "-//W3C//DTD SVG 1.1//EN" "http://www.w3.org/Graphics/SVG/1.1/DTD/svg11.dtd">
<svg version="1.1" id="Layer_1" xmlns="http://www.w3.org/2000/svg" xmlns:xlink="http://www.w3.org/1999/xlink" x="0px" y="0px"
	 width="56px" height="56px" viewBox="0 0 56 56" enable-background="new 0 0 56 56" xml:space="preserve">
<g id="g9361_8_" transform="translate(39.067803,161)">
	<g id="g8585_8_" transform="translate(-39.567803,-161)">
		
			<path id="path8589_8_" sodipodi:nodetypes="sscccsscccsscccsscssccccccccccssssssssssscsscccssssssssssssccsssssssssssscsscsccssssscccsssssssscssscssssssssssccssssssssscssssscsssssssssssscsssssscsssssssssscsssssssssssssssssssss" inkscape:connector-curvature="0" fill="#BEC4C4" d="
			M2.789,46.42c-0.747-0.287-1.614-1.109-2.003-1.899L0.5,43.942V28V12.058l0.286-0.58c0.401-0.814,1.254-1.612,2.036-1.904
			l0.643-0.241H28.5h25.035l0.664,0.248c0.798,0.299,1.677,1.126,2.047,1.927l0.254,0.549V28v15.942l-0.254,0.549
			c-0.37,0.801-1.249,1.629-2.047,1.927l-0.664,0.249l-25.068-0.006C3.598,46.655,3.394,46.653,2.789,46.42z M55.862,30.493V19.304
			H28.5H1.138v11.188v11.188H28.5h27.362V30.493z M44.516,40.058c-0.223-0.165-0.612-2.296-0.773-4.229
			c-0.078-0.941-0.118-1.071-0.419-1.351c-0.477-0.445-0.396-1.029,0.142-1.029c0.203,0,0.323-0.392,0.408-1.333
			c0.114-1.258,0.641-3.227,1.115-4.167c0.572-1.135,2.041-2.383,2.805-2.383c0.25,0,0.923,0.219,1.748,0.568
			c0.128,0.054,0.378,0.157,0.557,0.229c0.42,0.169,0.854,1.099,0.954,2.045c0.089,0.839-0.097,1.955-0.46,2.766
			c-0.56,1.251-2.938,3.374-4.118,3.677L45.891,35l0.003,1.109c0.004,1.375,0.169,2.683,0.419,3.339
			c0.105,0.275,0.153,0.537,0.106,0.584C46.326,40.126,44.639,40.149,44.516,40.058L44.516,40.058z M47.099,32.168
			c0.474-0.45,0.994-1.071,1.156-1.381c0.357-0.683,0.555-1.816,0.46-2.627c-0.109-0.925-0.211-0.992-0.69-0.45
			c-0.792,0.895-1.268,1.942-1.631,3.589c-0.324,1.469-0.357,1.687-0.255,1.687C46.193,32.986,46.626,32.617,47.099,32.168z
			 M32.466,33.843c-0.075-1.182-0.161-2.19-0.193-2.24s-0.461-0.128-0.955-0.173c-1.016-0.092-1.195-0.19-1.195-0.654
			c0-0.52,0.372-0.704,1.244-0.614l0.727,0.075l-0.005-0.451c-0.003-0.248-0.055-0.842-0.116-1.32
			c-0.446-3.502-0.529-5.988-0.227-6.782c0.093-0.244,0.186-0.29,0.581-0.29c0.454,0,1.523,0.442,1.679,0.694
			c0.04,0.065,0.099,1.54,0.131,3.278c0.075,4.068,0.076,3.795-0.018,4.231c-0.072,0.335-0.053,0.377,0.172,0.377
			c0.208,0,0.247-0.057,0.216-0.319c-0.032-0.271,0.01-0.324,0.272-0.355c0.245-0.028,0.467,0.115,1.072,0.691
			c0.42,0.4,0.763,0.788,0.763,0.863c0,0.166-0.411,0.259-2.053,0.463l-0.488,0.061l0.058,2.182
			c0.065,2.475,0.133,2.305-0.944,2.388l-0.587,0.046L32.466,33.843z M15.469,35.701c-0.039-0.101-0.072-0.27-0.073-0.377
			c-0.002-0.106-0.136-0.506-0.299-0.889c-0.331-0.776-0.904-2.591-1.099-3.478c-0.218-0.995-0.472-1.817-0.541-1.749
			c-0.036,0.036-0.108,1.096-0.16,2.356c-0.052,1.26-0.163,2.526-0.247,2.813l-0.153,0.522l-1.145,0.106l-1.145,0.106l-0.257-0.322
			c-0.141-0.177-0.584-0.865-0.984-1.528s-0.742-1.191-0.76-1.173c-0.018,0.018,0.039,0.545,0.126,1.171
			c0.088,0.626,0.133,1.205,0.101,1.288c-0.102,0.265-1.249,0.683-1.829,0.667c-0.535-0.015-0.65-0.238-0.821-1.6
			c-0.287-2.28-0.319-2.943-0.235-4.907l0.083-1.94l0.511-0.137c0.822-0.22,1.736-0.178,1.987,0.092
			c0.117,0.126,0.677,1.13,1.246,2.232l1.033,2.004l0.146-1.101c0.22-1.66,0.973-4.16,1.491-4.949
			c0.194-0.295,0.212-0.299,1.191-0.224c1.168,0.09,1.343,0.206,1.578,1.046c0.524,1.874,0.702,2.626,1.229,5.186
			c0.127,0.614,0.308,1.338,0.404,1.609c0.096,0.271,0.174,0.588,0.174,0.706c0,0.118,0.13,0.613,0.29,1.102
			c0.293,0.898,0.353,1.192,0.214,1.053c-0.042-0.042-0.146-0.018-0.232,0.053c-0.124,0.103-1.345,0.426-1.679,0.444
			C15.573,35.882,15.508,35.802,15.469,35.701L15.469,35.701z M20.116,35.641c-0.55-0.13-0.79-0.256-1.57-0.832
			c-0.898-0.662-1.04-1.056-1.056-2.925c-0.016-1.892,0.055-2.576,0.374-3.584c0.292-0.924,0.928-1.703,1.983-2.429
			c0.716-0.493,0.781-0.496,2.196-0.108c0.537,0.147,0.708,0.254,0.852,0.531c0.368,0.712,0.489,4.648,0.159,5.181
			c-0.115,0.186-1.868,0.196-2.668,0.016c-0.249-0.056-0.481-0.073-0.516-0.038c-0.035,0.035-0.062,0.433-0.061,0.885
			c0.003,0.974,0.251,1.61,0.813,2.083c0.343,0.288,0.443,0.315,0.915,0.245c0.291-0.043,0.664-0.158,0.828-0.254
			c0.403-0.237,1.473-0.027,1.837,0.361l0.253,0.269l-0.614,0.233C22.712,35.702,21.066,35.864,20.116,35.641L20.116,35.641z
			 M20.848,29.043c0-0.638-0.046-1.159-0.102-1.159c-0.12,0-0.572,1.072-0.709,1.682c-0.083,0.369-0.064,0.433,0.156,0.521
			C20.819,30.34,20.848,30.295,20.848,29.043z M27.514,35.457c-1.717-0.219-2.335-0.541-3.044-1.587
			c-0.525-0.774-0.554-0.859-0.617-1.805c-0.055-0.816-0.018-1.178,0.205-2.036c0.666-2.563,0.893-3.017,2.17-4.346
			c0.582-0.605,0.725-0.697,1.094-0.694c0.233,0.001,0.652,0.106,0.93,0.232c0.278,0.126,0.568,0.229,0.645,0.229
			s0.261,0.113,0.408,0.251c0.261,0.243,0.267,0.29,0.188,1.534c-0.045,0.706-0.129,1.341-0.187,1.41
			c-0.058,0.07-0.12,0.809-0.137,1.642l-0.032,1.515l-0.653,0.183c-0.577,0.162-0.753,0.164-1.505,0.02
			c-0.99-0.189-1.065-0.143-0.992,0.6c0.059,0.598,0.677,1.6,1.131,1.835c0.643,0.333,1.954,0.117,2.276-0.374
			c0.215-0.328,0.44-0.337,0.932-0.037c0.486,0.296,0.512,0.713,0.058,0.924C29.276,35.466,28.567,35.591,27.514,35.457
			L27.514,35.457z M27.267,30.522c0.038-0.143,0.069-0.835,0.067-1.536c-0.003-1.222-0.011-1.261-0.184-0.941
			c-0.223,0.411-0.853,2.213-0.853,2.439c0,0.193,0.173,0.278,0.595,0.291C27.115,30.78,27.217,30.712,27.267,30.522L27.267,30.522z
			 M38.163,35.25c-0.598-0.419-1.096-2.174-1.302-4.589c-0.113-1.327-0.097-1.969,0.057-2.218c0.109-0.177,0.731-0.097,1.288,0.166
			c1.03,0.485,0.999,0.406,1.099,2.786c0.102,2.41,0.164,2.901,0.358,2.836c0.257-0.086,1.2-1.605,1.343-2.163
			c0.082-0.32,0.132-1.13,0.118-1.901c-0.034-1.862,0.091-1.98,1.436-1.357c1.073,0.497,1.081,0.512,0.918,1.801
			c-0.146,1.157-0.299,1.624-0.632,1.928c-0.115,0.104-0.329,0.418-0.476,0.696c-0.147,0.278-0.337,0.506-0.422,0.506
			c-0.085,0-0.176,0.078-0.202,0.174c-0.042,0.155-0.034,0.155,0.075,0c0.068-0.096,0.123-0.122,0.123-0.058
			c0,0.255-1.134,1.343-1.514,1.452C39.819,35.483,38.447,35.448,38.163,35.25L38.163,35.25z"/>
		
			<path id="path8587_8_" sodipodi:nodetypes="cssssssssssscsscccssssssssssssccsssscssssssssscssssssscccsscssssscssscsscsssssssscscsssssssssssssscsccssssssssssscsssssscssssssssssscssssssssssscsssssssssss" inkscape:connector-curvature="0" fill="#BEC4C4" d="
			M44.516,40.058c-0.217-0.161-0.611-2.333-0.778-4.288c-0.075-0.878-0.12-1.017-0.414-1.293c-0.477-0.445-0.394-1.027,0.147-1.027
			c0.209,0,0.313-0.301,0.388-1.119c0.134-1.461,0.632-3.39,1.132-4.382c0.572-1.135,2.041-2.383,2.805-2.383
			c0.25,0,0.923,0.219,1.748,0.568c0.128,0.054,0.378,0.157,0.557,0.229c0.226,0.091,0.41,0.318,0.602,0.739
			c0.504,1.111,0.488,2.494-0.046,3.915c-0.472,1.257-2.93,3.512-4.175,3.831L45.891,35l0.003,1.109
			c0.004,1.375,0.169,2.683,0.419,3.339c0.105,0.275,0.153,0.537,0.106,0.584C46.326,40.126,44.639,40.149,44.516,40.058
			L44.516,40.058z M47.099,32.168c0.48-0.456,0.998-1.081,1.171-1.411c0.361-0.69,0.541-1.749,0.443-2.599
			c-0.109-0.939-0.208-0.992-0.733-0.395c-0.805,0.914-1.225,1.901-1.68,3.948c-0.106,0.478-0.219,0.961-0.251,1.072
			C45.942,33.16,46.235,32.988,47.099,32.168L47.099,32.168z M32.466,33.843c-0.075-1.182-0.161-2.19-0.193-2.24
			s-0.461-0.128-0.955-0.173c-1.016-0.092-1.195-0.19-1.195-0.654c0-0.52,0.372-0.704,1.244-0.614l0.727,0.075l-0.005-0.451
			c-0.003-0.248-0.055-0.842-0.116-1.32c-0.446-3.502-0.529-5.988-0.227-6.782c0.093-0.244,0.186-0.29,0.581-0.29
			c0.455,0,1.523,0.442,1.68,0.695c0.058,0.093,0.155,3.56,0.19,6.783c0.002,0.191-0.032,0.517-0.077,0.725
			c-0.072,0.335-0.053,0.377,0.172,0.377c0.208,0,0.247-0.057,0.216-0.319c-0.032-0.271,0.009-0.324,0.274-0.355
			c0.25-0.029,0.468,0.114,1.097,0.719c0.432,0.415,0.747,0.793,0.701,0.84c-0.176,0.176-0.97,0.386-1.472,0.389
			c-1.11,0.007-1.041-0.157-0.975,2.317c0.065,2.468,0.133,2.299-0.945,2.382l-0.587,0.046L32.466,33.843z M15.404,35.333
			c-0.076-0.303-0.264-0.838-0.418-1.188c-0.302-0.685-0.691-1.979-1.099-3.652c-0.14-0.574-0.296-1.12-0.346-1.213
			c-0.13-0.24-0.208,0.52-0.277,2.72c-0.032,1.02-0.128,2.09-0.212,2.377l-0.154,0.522l-1.145,0.106l-1.145,0.106l-0.257-0.322
			c-0.141-0.177-0.584-0.865-0.984-1.528s-0.742-1.191-0.759-1.174c-0.018,0.018,0.035,0.522,0.118,1.122
			c0.082,0.599,0.126,1.18,0.097,1.29c-0.079,0.303-1.172,0.733-1.817,0.714c-0.536-0.015-0.65-0.237-0.82-1.6
			c-0.291-2.323-0.317-2.862-0.234-4.861l0.083-1.987l0.51-0.136c0.821-0.22,1.735-0.177,1.986,0.092
			c0.117,0.126,0.677,1.13,1.246,2.232l1.033,2.004l0.146-1.101c0.216-1.623,0.858-3.797,1.411-4.775l0.217-0.384l1.024,0.025
			c0.842,0.021,1.064,0.066,1.252,0.253c0.291,0.291,0.84,2.371,1.648,6.24c0.096,0.461,0.251,1.054,0.345,1.319
			c0.093,0.265,0.17,0.578,0.17,0.695c0,0.118,0.13,0.613,0.29,1.102c0.293,0.898,0.353,1.192,0.214,1.053
			c-0.042-0.042-0.146-0.018-0.232,0.053c-0.124,0.103-1.344,0.426-1.678,0.444C15.575,35.882,15.48,35.636,15.404,35.333
			L15.404,35.333z M20.116,35.641c-0.55-0.13-0.79-0.256-1.57-0.832c-0.892-0.657-1.042-1.064-1.059-2.867
			c-0.018-1.845,0.065-2.648,0.371-3.621c0.285-0.907,0.97-1.754,1.96-2.425c0.598-0.405,0.651-0.419,1.262-0.331
			c1.09,0.158,1.629,0.375,1.812,0.727c0.361,0.694,0.486,4.656,0.163,5.178c-0.115,0.186-2.026,0.193-2.666,0.01
			c-0.213-0.061-0.431-0.083-0.486-0.049s-0.098,0.437-0.097,0.895c0.003,0.987,0.249,1.62,0.813,2.095
			c0.343,0.288,0.443,0.315,0.915,0.245c0.291-0.043,0.664-0.158,0.828-0.254c0.403-0.237,1.473-0.027,1.837,0.361l0.253,0.269
			l-0.614,0.233C22.712,35.702,21.066,35.864,20.116,35.641L20.116,35.641z M20.87,29.768c0.056-0.671-0.031-1.884-0.134-1.884
			c-0.112,0-0.567,1.095-0.699,1.682c-0.083,0.369-0.064,0.433,0.156,0.521C20.698,30.291,20.832,30.228,20.87,29.768z
			 M27.514,35.457c-1.718-0.219-2.335-0.54-3.044-1.587c-0.532-0.785-0.553-0.849-0.62-1.863c-0.048-0.724-0.023-1.177,0.079-1.456
			c0.082-0.223,0.231-0.783,0.331-1.245c0.358-1.641,0.743-2.35,1.982-3.639c0.567-0.59,0.711-0.681,1.079-0.679
			c0.233,0.001,0.652,0.106,0.93,0.232c0.278,0.126,0.568,0.229,0.645,0.229c0.077,0,0.26,0.113,0.408,0.251
			c0.261,0.243,0.267,0.29,0.188,1.534c-0.045,0.706-0.129,1.341-0.187,1.41c-0.058,0.07-0.12,0.809-0.137,1.642l-0.032,1.515
			l-0.653,0.183c-0.577,0.162-0.753,0.164-1.505,0.02c-0.943-0.18-1.025-0.144-1.028,0.451c-0.002,0.463,0.412,1.283,0.888,1.759
			c0.333,0.333,0.475,0.393,0.927,0.393c0.743,0,1.421-0.226,1.629-0.544c0.215-0.328,0.44-0.337,0.932-0.037
			c0.584,0.356,0.518,0.723-0.184,1.026C29.156,35.477,28.484,35.581,27.514,35.457L27.514,35.457z M27.267,30.522
			c0.038-0.143,0.069-0.835,0.067-1.536c-0.003-1.222-0.011-1.261-0.184-0.941c-0.223,0.411-0.853,2.213-0.853,2.439
			c0,0.193,0.173,0.278,0.595,0.291C27.115,30.78,27.217,30.712,27.267,30.522L27.267,30.522z M38.165,35.251
			c-0.603-0.422-1.096-2.188-1.313-4.7c-0.106-1.223-0.085-1.861,0.067-2.108c0.109-0.177,0.731-0.097,1.288,0.166
			c1.03,0.485,0.999,0.406,1.099,2.786c0.102,2.41,0.164,2.901,0.358,2.836c0.257-0.085,1.2-1.604,1.343-2.162
			c0.078-0.306,0.134-1.046,0.124-1.645c-0.01-0.599-0.018-1.208-0.019-1.353c0-0.333,0.222-0.606,0.494-0.606
			c0.292,0,1.666,0.65,1.855,0.876c0.127,0.153,0.13,0.384,0.018,1.27c-0.146,1.157-0.299,1.624-0.632,1.928
			c-0.115,0.104-0.329,0.418-0.476,0.696c-0.147,0.278-0.337,0.506-0.422,0.506c-0.085,0-0.176,0.078-0.202,0.174
			c-0.042,0.155-0.034,0.155,0.075,0c0.068-0.096,0.123-0.122,0.123-0.058c0,0.255-1.134,1.343-1.514,1.452
			C39.821,35.482,38.447,35.448,38.165,35.251L38.165,35.251z"/>
	</g>
</g>
</svg>
