<?xml version="1.0" encoding="utf-8"?>
<!-- Generator: Adobe Illustrator 17.0.0, SVG Export Plug-In . SVG Version: 6.00 Build 0)  -->
<!DOCTYPE svg PUBLIC "-//W3C//DTD SVG 1.1//EN" "http://www.w3.org/Graphics/SVG/1.1/DTD/svg11.dtd">
<svg version="1.1" id="Layer_1" xmlns="http://www.w3.org/2000/svg" xmlns:xlink="http://www.w3.org/1999/xlink" x="0px" y="0px"
	 width="72px" height="72px" viewBox="0 0 72 72" enable-background="new 0 0 72 72" xml:space="preserve">
<g>
	<path fill-rule="evenodd" clip-rule="evenodd" fill="#181616" d="M36,5.765c-17.118,0-31,13.879-31,31
		c0,13.697,8.882,25.317,21.2,29.416c1.549,0.287,2.118-0.673,2.118-1.491c0-0.739-0.029-3.181-0.042-5.772
		c-8.624,1.875-10.444-3.658-10.444-3.658c-1.41-3.583-3.442-4.536-3.442-4.536c-2.813-1.924,0.212-1.884,0.212-1.884
		c3.113,0.219,4.752,3.195,4.752,3.195c2.765,4.739,7.252,3.369,9.021,2.577c0.278-2.003,1.081-3.371,1.968-4.145
		c-6.886-0.784-14.124-3.442-14.124-15.32c0-3.384,1.211-6.15,3.194-8.321c-0.322-0.781-1.383-3.934,0.3-8.204
		c0,0,2.603-0.833,8.527,3.178c2.473-0.687,5.125-1.031,7.759-1.043c2.634,0.012,5.288,0.356,7.766,1.043
		c5.917-4.011,8.516-3.178,8.516-3.178c1.687,4.27,0.626,7.423,0.304,8.204c1.988,2.171,3.19,4.936,3.19,8.321
		c0,11.907-7.252,14.528-14.155,15.296c1.112,0.962,2.103,2.849,2.103,5.741c0,4.148-0.036,7.486-0.036,8.507
		c0,0.825,0.558,1.792,2.129,1.487C58.129,62.073,67,50.457,67,36.765C67,19.644,53.121,5.765,36,5.765z"/>
	<path fill="#181616" d="M16.741,50.274c-0.068,0.154-0.311,0.201-0.531,0.095c-0.225-0.101-0.351-0.311-0.278-0.466
		c0.067-0.158,0.309-0.203,0.534-0.097C16.691,49.908,16.819,50.12,16.741,50.274L16.741,50.274z M16.36,49.992"/>
	<path fill="#181616" d="M17.997,51.675c-0.148,0.137-0.437,0.073-0.633-0.143c-0.203-0.216-0.241-0.505-0.091-0.644
		c0.152-0.137,0.433-0.073,0.636,0.143C18.112,51.25,18.152,51.536,17.997,51.675L17.997,51.675z M17.701,51.358"/>
	<path fill="#181616" d="M19.219,53.46c-0.19,0.132-0.501,0.009-0.693-0.267c-0.19-0.276-0.19-0.607,0.004-0.739
		c0.192-0.132,0.498-0.013,0.693,0.26C19.413,52.995,19.413,53.325,19.219,53.46L19.219,53.46z M19.219,53.46"/>
	<path fill="#181616" d="M20.894,55.185c-0.17,0.187-0.532,0.137-0.797-0.119c-0.271-0.25-0.346-0.605-0.176-0.792
		c0.172-0.188,0.536-0.135,0.803,0.119C20.993,54.643,21.075,55,20.894,55.185L20.894,55.185z M20.894,55.185"/>
	<path fill="#181616" d="M23.204,56.187c-0.075,0.243-0.424,0.353-0.775,0.25c-0.351-0.106-0.58-0.391-0.509-0.636
		c0.073-0.245,0.423-0.359,0.777-0.249C23.047,55.658,23.277,55.94,23.204,56.187L23.204,56.187z M23.204,56.187"/>
	<path fill="#181616" d="M25.741,56.372c0.009,0.256-0.289,0.468-0.658,0.472c-0.37,0.009-0.671-0.199-0.675-0.45
		c0-0.258,0.291-0.468,0.662-0.474C25.439,55.913,25.741,56.119,25.741,56.372L25.741,56.372z M25.741,56.372"/>
	<path fill="#181616" d="M28.102,55.971c0.044,0.249-0.212,0.505-0.578,0.574c-0.36,0.066-0.693-0.088-0.739-0.335
		c-0.045-0.256,0.216-0.512,0.576-0.578C27.727,55.567,28.055,55.717,28.102,55.971L28.102,55.971z M28.102,55.971"/>
</g>
</svg>
