<?xml version="1.0" encoding="utf-8"?>
<!-- Generator: Adobe Illustrator 17.0.0, SVG Export Plug-In . SVG Version: 6.00 Build 0)  -->
<!DOCTYPE svg PUBLIC "-//W3C//DTD SVG 1.1//EN" "http://www.w3.org/Graphics/SVG/1.1/DTD/svg11.dtd">
<svg version="1.1" id="Layer_1" xmlns="http://www.w3.org/2000/svg" xmlns:xlink="http://www.w3.org/1999/xlink" x="0px" y="0px"
	 width="72px" height="72px" viewBox="0 0 72 72" enable-background="new 0 0 72 72" xml:space="preserve">
<g>
	<g>
		<path fill="#70CADB" d="M10.277,37.809c-2.313,0.018-4.273-1.361-4.996-3.513c-0.028-0.083-0.052-0.164-0.075-0.245
			c-0.787-2.755,0.739-5.638,3.476-6.561l43.892-14.705c0.533-0.153,1.071-0.231,1.603-0.234c2.375-0.019,4.388,1.39,5.129,3.587
			l0.066,0.212c0.821,2.87-1.219,5.432-3.663,6.253c-0.002,0.001-0.446,0.152-43.649,14.902
			C11.476,37.704,10.877,37.804,10.277,37.809L10.277,37.809z"/>
	</g>
	<g>
		<path fill="#E01765" d="M17.593,59.395c-2.331,0.017-4.298-1.342-5.012-3.463c-0.027-0.081-0.053-0.162-0.076-0.244
			c-0.798-2.788,0.727-5.701,3.473-6.625l43.894-14.84c0.567-0.189,1.153-0.286,1.742-0.292c2.338-0.018,4.392,1.411,5.116,3.555
			l0.067,0.223c0.424,1.483,0.173,3.149-0.669,4.464c-0.628,0.978-2.61,1.838-2.61,1.838l-44.06,15.065
			C18.844,59.282,18.218,59.39,17.593,59.395L17.593,59.395z"/>
	</g>
	<g>
		<path fill="#E8A723" d="M54.132,59.489c-2.341,0.018-4.414-1.459-5.16-3.673L34.323,12.303l-0.073-0.244
			c-0.794-2.775,0.733-5.669,3.468-6.591c0.547-0.184,1.113-0.28,1.683-0.285c0.846-0.006,1.665,0.184,2.437,0.565
			c1.29,0.642,2.254,1.747,2.715,3.113l14.648,43.509l0.043,0.14c0.823,2.881-0.7,5.777-3.436,6.699
			C55.265,59.389,54.701,59.484,54.132,59.489L54.132,59.489z"/>
	</g>
	<g>
		<path fill="#3EB890" d="M32.357,66.818c-2.341,0.018-4.416-1.459-5.162-3.676L12.55,19.631c-0.025-0.08-0.051-0.16-0.075-0.242
			c-0.792-2.774,0.73-5.669,3.465-6.592c0.545-0.181,1.109-0.277,1.678-0.281c2.342-0.019,4.415,1.458,5.161,3.673l14.646,43.513
			c0.027,0.076,0.052,0.16,0.075,0.24c0.793,2.776-0.729,5.673-3.468,6.596c-0.544,0.181-1.107,0.276-1.675,0.281L32.357,66.818
			L32.357,66.818z"/>
	</g>
	<path fill="#CC2027" d="M46.91,49.69l10.214-3.492l-3.339-9.916l-10.226,3.456L46.91,49.69z"/>
	<path fill="#361238" d="M25.169,57.123l10.213-3.492l-3.364-9.992l-10.224,3.457L25.169,57.123z"/>
	<path fill="#65863A" d="M39.638,28.091l10.215-3.488l-3.3-9.8l-10.234,3.429L39.638,28.091z"/>
	<path fill="#1A937D" d="M17.895,35.514l10.215-3.488l-3.34-9.925l-10.234,3.428L17.895,35.514L17.895,35.514z"/>
</g>
</svg>
