<?xml version="1.0" encoding="utf-8"?>
<!-- Generator: Adobe Illustrator 17.0.0, SVG Export Plug-In . SVG Version: 6.00 Build 0)  -->
<!DOCTYPE svg PUBLIC "-//W3C//DTD SVG 1.1//EN" "http://www.w3.org/Graphics/SVG/1.1/DTD/svg11.dtd">
<svg version="1.1" id="Layer_1" xmlns="http://www.w3.org/2000/svg" xmlns:xlink="http://www.w3.org/1999/xlink" x="0px" y="0px"
	 width="56px" height="56px" viewBox="0 0 56 56" enable-background="new 0 0 56 56" xml:space="preserve">
<g>
	<path fill="#BEC4C4" d="M48.998,31.988c0.055,3.44-0.88,6.508-3.291,9.042c-1.244,1.308-2.703,2.329-4.287,3.176
		c-3.572,1.909-7.404,3.09-11.328,4c-2.343,0.544-4.712,0.897-7.131,0.777c-3.61-0.18-6.679-1.518-8.987-4.345
		c-0.842-1.031-1.594-2.16-2.23-3.33c-1.863-3.432-2.99-7.142-3.892-10.922c-0.539-2.258-0.879-4.541-0.851-6.875
		c0.054-4.392,1.843-7.858,5.437-10.391c2.164-1.525,4.555-2.592,7.036-3.463c3.137-1.101,6.327-2.005,9.633-2.451
		c2.144-0.289,4.285-0.325,6.409,0.144c2.907,0.641,5.194,2.245,6.985,4.589c1.783,2.335,2.949,4.987,3.906,7.737
		c1.111,3.193,2.025,6.439,2.42,9.809C48.926,30.314,48.943,31.154,48.998,31.988z M32.61,18.917
		c-0.362-1.059-0.654-2.018-1.017-2.949c-0.426-1.094-1.6-1.595-2.692-1.206c-1.032,0.368-1.613,1.486-1.3,2.57
		c0.201,0.696,0.46,1.375,0.683,2.064c0.09,0.277,0.152,0.563,0.241,0.898c-1.915,0.641-3.729,1.247-5.602,1.874
		c-0.134-0.354-0.238-0.606-0.326-0.863c-0.236-0.686-0.433-1.387-0.706-2.058c-0.451-1.11-1.604-1.623-2.672-1.234
		c-1.11,0.404-1.653,1.462-1.317,2.621c0.194,0.669,0.436,1.325,0.649,1.989c0.09,0.282,0.162,0.57,0.249,0.878
		c-0.25,0.107-0.423,0.193-0.604,0.255c-0.686,0.234-1.381,0.445-2.061,0.694c-1.047,0.383-1.632,1.349-1.453,2.348
		c0.24,1.334,1.43,2.077,2.754,1.688c0.904-0.266,1.793-0.583,2.769-0.903c0.615,1.836,1.211,3.617,1.827,5.457
		c-0.985,0.334-1.857,0.615-2.718,0.926c-1.019,0.368-1.605,1.295-1.462,2.265c0.202,1.368,1.429,2.159,2.767,1.76
		c0.903-0.269,1.794-0.578,2.746-0.886c0.114,0.304,0.215,0.558,0.304,0.816c0.246,0.711,0.454,1.438,0.736,2.134
		c0.429,1.059,1.553,1.56,2.62,1.218c1.006-0.322,1.622-1.387,1.407-2.461c-0.054-0.272-0.163-0.533-0.249-0.798
		c-0.241-0.736-0.483-1.472-0.75-2.285c1.896-0.635,3.734-1.251,5.639-1.889c0.125,0.335,0.223,0.589,0.314,0.846
		c0.249,0.711,0.451,1.442,0.75,2.13c0.654,1.503,2.55,1.772,3.57,0.526c0.496-0.607,0.616-1.296,0.37-2.045
		c-0.302-0.919-0.602-1.839-0.917-2.802c0.382-0.141,0.691-0.26,1.003-0.368c0.606-0.21,1.227-0.383,1.819-0.627
		c1.122-0.464,1.634-1.605,1.238-2.668c-0.411-1.101-1.489-1.651-2.636-1.32c-0.589,0.17-1.165,0.388-1.749,0.576
		c-0.333,0.107-0.672,0.197-1.058,0.309c-0.619-1.845-1.21-3.604-1.813-5.402c0.347-0.127,0.604-0.226,0.863-0.316
		c0.685-0.24,1.388-0.434,2.051-0.723c1.121-0.488,1.574-1.705,1.093-2.793c-0.424-0.959-1.48-1.478-2.491-1.179
		C34.551,18.258,33.635,18.581,32.61,18.917z"/>
	<path fill="#BEC4C4" d="M29.91,24.314c0.618,1.831,1.211,3.587,1.845,5.464c-1.902,0.642-3.732,1.26-5.669,1.914
		c-0.619-1.826-1.213-3.579-1.851-5.46C26.119,25.596,27.973,24.969,29.91,24.314z"/>
</g>
</svg>
