<?xml version="1.0" encoding="utf-8"?>
<!-- Generator: Adobe Illustrator 17.0.0, SVG Export Plug-In . SVG Version: 6.00 Build 0)  -->
<!DOCTYPE svg PUBLIC "-//W3C//DTD SVG 1.1//EN" "http://www.w3.org/Graphics/SVG/1.1/DTD/svg11.dtd">
<svg version="1.1" id="Layer_1" xmlns="http://www.w3.org/2000/svg" xmlns:xlink="http://www.w3.org/1999/xlink" x="0px" y="0px"
	 width="72px" height="72px" viewBox="0 0 72 72" enable-background="new 0 0 72 72" xml:space="preserve">
<path fill="#55ACEE" d="M67.993,16.156c-2.354,1.044-4.884,1.75-7.54,2.067c2.71-1.625,4.792-4.197,5.772-7.263
	c-2.536,1.504-5.346,2.597-8.336,3.186C55.495,11.594,52.083,10,48.307,10c-7.25,0-13.128,5.878-13.128,13.127
	c0,1.029,0.116,2.031,0.34,2.992c-10.91-0.547-20.583-5.774-27.058-13.716c-1.13,1.939-1.777,4.194-1.777,6.6
	c0,4.554,2.318,8.572,5.84,10.927c-2.152-0.068-4.176-0.659-5.946-1.642c-0.001,0.055-0.001,0.11-0.001,0.165
	c0,6.361,4.525,11.666,10.53,12.872c-1.102,0.3-2.261,0.46-3.459,0.46c-0.846,0-1.668-0.082-2.47-0.235
	c1.671,5.215,6.519,9.011,12.263,9.117c-4.493,3.521-10.153,5.619-16.303,5.619c-1.06,0-2.105-0.062-3.132-0.183
	C9.817,59.827,16.717,62,24.13,62c24.146,0,37.35-20.003,37.35-37.351c0-0.569-0.013-1.135-0.038-1.698
	C64.007,21.1,66.233,18.788,67.993,16.156z"/>
</svg>
