<?xml version="1.0" encoding="utf-8"?>
<!-- Generator: Adobe Illustrator 17.0.0, SVG Export Plug-In . SVG Version: 6.00 Build 0)  -->
<!DOCTYPE svg PUBLIC "-//W3C//DTD SVG 1.1//EN" "http://www.w3.org/Graphics/SVG/1.1/DTD/svg11.dtd">
<svg version="1.1" id="Layer_1" xmlns="http://www.w3.org/2000/svg" xmlns:xlink="http://www.w3.org/1999/xlink" x="0px" y="0px"
	 width="48px" height="48px" viewBox="0 0 48 48" enable-background="new 0 0 48 48" xml:space="preserve">
<path fill="#BEC4C4" d="M6.4,16.8v23.962C6.4,42.551,7.833,44,9.6,44h28.8c1.767,0,3.2-1.449,3.2-3.238V16.8H6.4L6.4,16.8z
	 M15.2,41.6H8.8v-6.4h6.4V41.6z M15.2,33.6H8.8v-6.4h6.4V33.6z M15.2,25.6H8.8v-6.4h6.4V25.6z M23.2,41.6h-6.4v-6.4h6.4V41.6z
	 M23.2,33.6h-6.4v-6.4h6.4V33.6z M23.2,25.6h-6.4v-6.4h6.4V25.6z M31.2,41.6h-6.4v-6.4h6.4V41.6z M31.2,33.6h-6.4v-6.4h6.4V33.6z
	 M31.2,25.6h-6.4v-6.4h6.4V25.6z M39.2,41.6h-6.4v-6.4h6.4V41.6z M39.2,33.6h-6.4v-6.4h6.4V33.6z M39.2,25.6h-6.4v-6.4h6.4V25.6z
	 M38.4,8.8h-5.2V5.2C33.2,4.537,32.663,4,32,4c-0.663,0-1.2,0.537-1.2,1.2v3.6H17.2V5.2C17.2,4.537,16.663,4,16,4
	c-0.663,0-1.2,0.537-1.2,1.2v3.6H9.6c-1.767,0-3.2,1.449-3.2,3.237V15.2h35.2v-3.163C41.6,10.249,40.167,8.8,38.4,8.8z M16,14.4
	c-1.325,0-2.4-1.075-2.4-2.4c0-0.888,0.484-1.661,1.2-2.076V12c0,0.663,0.537,1.2,1.2,1.2c0.662,0,1.2-0.537,1.2-1.2V9.924
	c0.717,0.415,1.2,1.189,1.2,2.076C18.4,13.325,17.326,14.4,16,14.4z M32,14.4c-1.325,0-2.4-1.075-2.4-2.4
	c0-0.888,0.484-1.661,1.2-2.076V12c0,0.663,0.537,1.2,1.2,1.2c0.662,0,1.2-0.537,1.2-1.2V9.924c0.717,0.415,1.2,1.189,1.2,2.076
	C34.4,13.325,33.326,14.4,32,14.4z"/>
</svg>
