<?xml version="1.0" encoding="utf-8"?>
<!-- Generator: Adobe Illustrator 17.0.0, SVG Export Plug-In . SVG Version: 6.00 Build 0)  -->
<!DOCTYPE svg PUBLIC "-//W3C//DTD SVG 1.1//EN" "http://www.w3.org/Graphics/SVG/1.1/DTD/svg11.dtd">
<svg version="1.1" id="Layer_1" xmlns="http://www.w3.org/2000/svg" xmlns:xlink="http://www.w3.org/1999/xlink" x="0px" y="0px"
	 width="72px" height="72px" viewBox="0 0 72 72" enable-background="new 0 0 72 72" xml:space="preserve">
<g>
	<path id="Facebook_5_" fill="#3B5998" d="M29.112,20.071c0,1.31,0,7.159,0,7.159h-5.245v8.755h5.245V62h10.775V35.985h7.23
		c0,0,0.677-4.198,1.005-8.788c-0.941,0-8.195,0-8.195,0s0-5.093,0-5.986c0-0.895,1.175-2.098,2.336-2.098c1.159,0,3.605,0,5.87,0
		c0-1.192,0-5.31,0-9.114c-3.024,0-6.465,0-7.982,0C28.845,9.999,29.112,18.763,29.112,20.071z"/>
</g>
</svg>
