<?xml version="1.0" encoding="utf-8"?>
<!-- Generator: Adobe Illustrator 17.0.0, SVG Export Plug-In . SVG Version: 6.00 Build 0)  -->
<!DOCTYPE svg PUBLIC "-//W3C//DTD SVG 1.1//EN" "http://www.w3.org/Graphics/SVG/1.1/DTD/svg11.dtd">
<svg version="1.1" id="Layer_1" xmlns="http://www.w3.org/2000/svg" xmlns:xlink="http://www.w3.org/1999/xlink" x="0px" y="0px"
	 width="56px" height="56px" viewBox="0 0 56 56" enable-background="new 0 0 56 56" xml:space="preserve">
<path fill="#BEC4C4" d="M28,6.542c-12.149,0-22,9.851-22,22c0,9.722,6.303,17.966,15.046,20.875c1.1,0.201,1.501-0.478,1.501-1.058
	c0-0.524-0.02-2.259-0.031-4.095c-6.118,1.329-7.411-2.594-7.411-2.594c-1.002-2.541-2.443-3.217-2.443-3.217
	c-1.999-1.364,0.152-1.337,0.152-1.337c2.209,0.153,3.372,2.267,3.372,2.267c1.963,3.362,5.151,2.39,6.402,1.826
	c0.2-1.418,0.769-2.39,1.396-2.938c-4.884-0.556-10.021-2.444-10.021-10.874c0-2.404,0.858-4.364,2.263-5.904
	c-0.224-0.559-0.982-2.797,0.218-5.825c0,0,1.845-0.591,6.051,2.256c1.754-0.49,3.635-0.732,5.505-0.74
	c1.869,0.008,3.752,0.252,5.508,0.743c4.198-2.849,6.045-2.256,6.045-2.256c1.203,3.031,0.446,5.266,0.22,5.822
	c1.41,1.54,2.261,3.501,2.261,5.904c0,8.451-5.146,10.312-10.047,10.858c0.792,0.682,1.493,2.02,1.493,4.071
	c0,2.941-0.03,5.312-0.03,6.037c0,0.585,0.4,1.27,1.515,1.055C43.702,46.503,50,38.259,50,28.542C50,16.393,40.149,6.542,28,6.542z"
	/>
</svg>
