<?xml version="1.0" encoding="utf-8"?>
<!-- Generator: Adobe Illustrator 17.0.0, SVG Export Plug-In . SVG Version: 6.00 Build 0)  -->
<!DOCTYPE svg PUBLIC "-//W3C//DTD SVG 1.1//EN" "http://www.w3.org/Graphics/SVG/1.1/DTD/svg11.dtd">
<svg version="1.1" id="Layer_1" xmlns="http://www.w3.org/2000/svg" xmlns:xlink="http://www.w3.org/1999/xlink" x="0px" y="0px"
	 width="60px" height="72px" viewBox="0 0 60 72" enable-background="new 0 0 60 72" xml:space="preserve">
<g>
	<g>
		<g>
			<path d="M17.75,63.111c-8.96,0-16.25-7.29-16.25-16.25s7.29-16.25,16.25-16.25S34,37.901,34,46.861S26.71,63.111,17.75,63.111z
				 M17.75,33.611c-7.306,0-13.25,5.944-13.25,13.25s5.944,13.25,13.25,13.25S31,54.168,31,46.861S25.056,33.611,17.75,33.611z"/>
		</g>
		<g>
			<path d="M17.759,55.484c-2.747,0-5.268-1.384-6.744-3.703c-0.444-0.699-0.238-1.626,0.46-2.071
				c0.699-0.445,1.625-0.241,2.071,0.459c0.922,1.449,2.497,2.314,4.213,2.314c1.76,0,3.408-0.943,4.304-2.461
				c0.42-0.715,1.344-0.949,2.054-0.53c0.714,0.42,0.951,1.34,0.53,2.054C23.215,53.975,20.575,55.484,17.759,55.484z"/>
		</g>
		<g>
			<circle cx="12.125" cy="43.534" r="3"/>
		</g>
		<g>
			<path d="M23.145,45.534c-1.103,0-2-0.897-2-2s0.897-2,2-2s2,0.897,2,2S24.247,45.534,23.145,45.534z M23.145,42.534
				c-0.552,0-1,0.449-1,1s0.448,1,1,1s1-0.449,1-1S23.696,42.534,23.145,42.534z"/>
		</g>
	</g>
	<g>
		<path d="M19.315,70.701c-0.828,0-1.5-0.671-1.5-1.5V26.534c0-0.829,0.672-1.5,1.5-1.5s1.5,0.671,1.5,1.5v42.667
			C20.815,70.029,20.144,70.701,19.315,70.701z"/>
	</g>
	<g>
		<defs>
			<rect id="SVGID_11_" x="19.063" y="17.201" width="40.616" height="47.667"/>
		</defs>
		<clipPath id="SVGID_2_">
			<use xlink:href="#SVGID_11_"  overflow="visible"/>
		</clipPath>
		<g clip-path="url(#SVGID_2_)">
			<g>
				<circle cx="19.316" cy="46.861" r="14.75"/>
				<path d="M19.315,63.111c-8.96,0-16.25-7.29-16.25-16.25s7.29-16.25,16.25-16.25s16.25,7.29,16.25,16.25
					S28.275,63.111,19.315,63.111z M19.315,33.611c-7.306,0-13.25,5.944-13.25,13.25s5.944,13.25,13.25,13.25
					s13.25-5.944,13.25-13.25S26.621,33.611,19.315,33.611z"/>
			</g>
			<g>
				<path fill="#FFFFFF" d="M24.601,55.317H13.526c-0.828,0-1.5-0.671-1.5-1.5s0.672-1.5,1.5-1.5h11.074c0.828,0,1.5,0.671,1.5,1.5
					S25.429,55.317,24.601,55.317z"/>
			</g>
			<g>
				<circle fill="#FFFFFF" cx="13.372" cy="43.367" r="1"/>
			</g>
			<g>
				<path fill="#222222" d="M43.124,27.392h-5.333c-0.828,0-1.5-0.671-1.5-1.5s0.672-1.5,1.5-1.5h5.333c0.828,0,1.5,0.671,1.5,1.5
					S43.952,27.392,43.124,27.392z"/>
			</g>
			<g>
				<path fill="#222222" d="M43.124,34.225h-5.333c-0.828,0-1.5-0.671-1.5-1.5c0-0.829,0.672-1.5,1.5-1.5h5.333
					c0.828,0,1.5,0.671,1.5,1.5C44.624,33.553,43.952,34.225,43.124,34.225z"/>
			</g>
			<g>
				<path fill="#222222" d="M37.79,34.225c-0.323,0-0.647-0.104-0.922-0.317c-0.653-0.51-0.77-1.453-0.26-2.105l5.333-6.833
					c0.51-0.654,1.451-0.769,2.105-0.26c0.653,0.51,0.77,1.453,0.26,2.105l-5.333,6.833C38.678,34.026,38.236,34.225,37.79,34.225z"
					/>
			</g>
			<g>
				<path fill="#222222" d="M53.525,21.51h-5.333c-0.828,0-1.5-0.671-1.5-1.5s0.672-1.5,1.5-1.5h5.333c0.828,0,1.5,0.671,1.5,1.5
					S54.354,21.51,53.525,21.51z"/>
			</g>
			<g>
				<path fill="#222222" d="M53.525,28.343h-5.333c-0.828,0-1.5-0.671-1.5-1.5s0.672-1.5,1.5-1.5h5.333c0.828,0,1.5,0.671,1.5,1.5
					S54.354,28.343,53.525,28.343z"/>
			</g>
			<g>
				<path fill="#222222" d="M48.191,28.343c-0.322,0-0.647-0.104-0.922-0.317c-0.653-0.51-0.77-1.452-0.26-2.105l5.333-6.833
					c0.51-0.652,1.45-0.77,2.105-0.26c0.653,0.51,0.77,1.452,0.26,2.105l-5.333,6.833C49.079,28.145,48.638,28.343,48.191,28.343z"
					/>
			</g>
			<g>
				<path fill="#FFFFFF" d="M24.601,44.639c-1.079,0-2.108-0.6-2.825-1.646c-0.312-0.456-0.195-1.078,0.26-1.39
					c0.458-0.312,1.079-0.195,1.391,0.26c0.686,1,1.664,1,2.35,0c0.312-0.456,0.934-0.573,1.391-0.26
					c0.455,0.312,0.571,0.935,0.26,1.39C26.709,44.04,25.68,44.639,24.601,44.639z"/>
			</g>
		</g>
	</g>
</g>
</svg>
