<?xml version="1.0" encoding="utf-8"?>
<!-- Generator: Adobe Illustrator 17.0.0, SVG Export Plug-In . SVG Version: 6.00 Build 0)  -->
<!DOCTYPE svg PUBLIC "-//W3C//DTD SVG 1.1//EN" "http://www.w3.org/Graphics/SVG/1.1/DTD/svg11.dtd">
<svg version="1.1" id="Layer_1" xmlns="http://www.w3.org/2000/svg" xmlns:xlink="http://www.w3.org/1999/xlink" x="0px" y="0px"
	 width="80px" height="72px" viewBox="0 0 80 72" enable-background="new 0 0 80 72" xml:space="preserve">
<g>
	<g>
		<path d="M16.974,63.251c-8.96,0-16.25-7.29-16.25-16.25s7.29-16.25,16.25-16.25s16.25,7.29,16.25,16.25
			S25.934,63.251,16.974,63.251z M16.974,33.751c-7.306,0-13.25,5.944-13.25,13.25s5.944,13.25,13.25,13.25s13.25-5.944,13.25-13.25
			S24.279,33.751,16.974,33.751z"/>
	</g>
	<g>
		<path d="M16.974,38.694c-0.828,0-1.5-0.671-1.5-1.5v-4.944c0-0.829,0.672-1.5,1.5-1.5s1.5,0.671,1.5,1.5v4.944
			C18.474,38.023,17.802,38.694,16.974,38.694z"/>
	</g>
	<g>
		<path d="M16.907,63.251c-0.828,0-1.5-0.671-1.5-1.5v-4.943c0-0.829,0.672-1.5,1.5-1.5s1.5,0.671,1.5,1.5v4.943
			C18.407,62.579,17.735,63.251,16.907,63.251z"/>
	</g>
	<g>
		<path d="M31.69,48.534h-4.943c-0.828,0-1.5-0.671-1.5-1.5s0.672-1.5,1.5-1.5h4.943c0.828,0,1.5,0.671,1.5,1.5
			S32.519,48.534,31.69,48.534z"/>
	</g>
	<g>
		<path d="M7.134,48.467H2.19c-0.828,0-1.5-0.671-1.5-1.5s0.672-1.5,1.5-1.5h4.943c0.828,0,1.5,0.671,1.5,1.5
			S7.962,48.467,7.134,48.467z"/>
	</g>
	<g>
		<path d="M16.974,36.694c-0.828,0-1.5-0.671-1.5-1.5v-2.943c0-0.829,0.672-1.5,1.5-1.5s1.5,0.671,1.5,1.5v2.943
			C18.474,36.022,17.802,36.694,16.974,36.694z"/>
	</g>
	<g>
		<path d="M16.907,63.251c-0.828,0-1.5-0.671-1.5-1.5v-3.943c0-0.829,0.672-1.5,1.5-1.5s1.5,0.671,1.5,1.5v3.943
			C18.407,62.579,17.735,63.251,16.907,63.251z"/>
	</g>
	<g>
		<path d="M31.69,48.534h-3.943c-0.828,0-1.5-0.671-1.5-1.5s0.672-1.5,1.5-1.5h3.943c0.828,0,1.5,0.671,1.5,1.5
			S32.519,48.534,31.69,48.534z"/>
	</g>
	<g>
		<path d="M6.134,48.467H2.19c-0.828,0-1.5-0.671-1.5-1.5s0.672-1.5,1.5-1.5h3.943c0.828,0,1.5,0.671,1.5,1.5
			S6.962,48.467,6.134,48.467z"/>
	</g>
	<g>
		<path d="M63.06,63.251c-8.96,0-16.25-7.29-16.25-16.25s7.29-16.25,16.25-16.25s16.25,7.29,16.25,16.25S72.02,63.251,63.06,63.251z
			 M63.06,33.751c-7.306,0-13.25,5.944-13.25,13.25s5.944,13.25,13.25,13.25s13.25-5.944,13.25-13.25S70.365,33.751,63.06,33.751z"
			/>
	</g>
	<g>
		<path d="M63.06,38.694c-0.828,0-1.5-0.671-1.5-1.5v-4.944c0-0.829,0.672-1.5,1.5-1.5s1.5,0.671,1.5,1.5v4.944
			C64.56,38.023,63.888,38.694,63.06,38.694z"/>
	</g>
	<g>
		<path d="M62.993,63.251c-0.828,0-1.5-0.671-1.5-1.5v-4.943c0-0.829,0.672-1.5,1.5-1.5s1.5,0.671,1.5,1.5v4.943
			C64.493,62.579,63.821,63.251,62.993,63.251z"/>
	</g>
	<g>
		<path d="M77.776,48.534h-4.943c-0.828,0-1.5-0.671-1.5-1.5s0.672-1.5,1.5-1.5h4.943c0.828,0,1.5,0.671,1.5,1.5
			S78.604,48.534,77.776,48.534z"/>
	</g>
	<g>
		<path d="M53.22,48.467h-4.943c-0.828,0-1.5-0.671-1.5-1.5s0.672-1.5,1.5-1.5h4.943c0.828,0,1.5,0.671,1.5,1.5
			S54.048,48.467,53.22,48.467z"/>
	</g>
	<g>
		<path d="M63.06,36.694c-0.828,0-1.5-0.671-1.5-1.5v-2.943c0-0.829,0.672-1.5,1.5-1.5s1.5,0.671,1.5,1.5v2.943
			C64.56,36.022,63.888,36.694,63.06,36.694z"/>
	</g>
	<g>
		<path d="M62.993,63.251c-0.828,0-1.5-0.671-1.5-1.5v-3.943c0-0.829,0.672-1.5,1.5-1.5s1.5,0.671,1.5,1.5v3.943
			C64.493,62.579,63.821,63.251,62.993,63.251z"/>
	</g>
	<g>
		<path d="M77.776,48.534h-3.943c-0.828,0-1.5-0.671-1.5-1.5s0.672-1.5,1.5-1.5h3.943c0.828,0,1.5,0.671,1.5,1.5
			S78.604,48.534,77.776,48.534z"/>
	</g>
	<g>
		<path d="M52.22,48.467h-3.943c-0.828,0-1.5-0.671-1.5-1.5s0.672-1.5,1.5-1.5h3.943c0.828,0,1.5,0.671,1.5,1.5
			S53.048,48.467,52.22,48.467z"/>
	</g>
	<g opacity="0.3">
		<path fill="#222222" d="M77.81,47.001c0-8.146-6.604-14.75-14.75-14.75c0,7.404,0,6.604,0,14.75
			c-2.889,2.889-5.219,4.726-10.673,10.181c2.686,2.815,6.475,4.569,10.673,4.569C71.206,61.751,77.81,55.147,77.81,47.001z"/>
	</g>
</g>
</svg>
