<?xml version="1.0" encoding="utf-8"?>
<!-- Generator: Adobe Illustrator 17.0.0, SVG Export Plug-In . SVG Version: 6.00 Build 0)  -->
<!DOCTYPE svg PUBLIC "-//W3C//DTD SVG 1.1//EN" "http://www.w3.org/Graphics/SVG/1.1/DTD/svg11.dtd">
<svg version="1.1" id="Layer_1" xmlns="http://www.w3.org/2000/svg" xmlns:xlink="http://www.w3.org/1999/xlink" x="0px" y="0px"
	 width="150px" height="72px" viewBox="0 0 150 72" enable-background="new 0 0 150 72" xml:space="preserve">
<g>
	<g>
		<g>
			<path d="M16.303,63.289c-8.96,0-16.25-7.29-16.25-16.25s7.29-16.25,16.25-16.25s16.25,7.29,16.25,16.25
				S25.263,63.289,16.303,63.289z M16.303,33.789c-7.306,0-13.25,5.944-13.25,13.25s5.944,13.25,13.25,13.25
				s13.25-5.944,13.25-13.25S23.609,33.789,16.303,33.789z"/>
		</g>
		<g>
			<path d="M10.679,45.712c-1.103,0-2-0.897-2-2s0.897-2,2-2s2,0.897,2,2S11.781,45.712,10.679,45.712z M10.679,42.712
				c-0.552,0-1,0.449-1,1s0.448,1,1,1s1-0.449,1-1S11.231,42.712,10.679,42.712z"/>
		</g>
		<g>
			<path d="M21.697,45.712c-1.103,0-2-0.897-2-2s0.897-2,2-2s2,0.897,2,2S22.8,45.712,21.697,45.712z M21.697,42.712
				c-0.552,0-1,0.449-1,1s0.448,1,1,1s1-0.449,1-1S22.249,42.712,21.697,42.712z"/>
		</g>
		<g>
			<path d="M10.802,55.354c-0.26,0-0.521-0.067-0.761-0.208c-0.714-0.421-0.951-1.341-0.53-2.054
				c1.674-2.838,4.039-4.338,6.84-4.338c3.684,0,5.926,2.895,6.718,4.14c0.445,0.699,0.24,1.625-0.459,2.071
				c-0.696,0.444-1.626,0.24-2.07-0.459c-0.527-0.827-1.99-2.751-4.188-2.751c-1.703,0-3.136,0.963-4.256,2.863
				C11.815,55.09,11.315,55.354,10.802,55.354z"/>
		</g>
	</g>
	<g>
		<g>
			<path d="M72.791,63.289c-8.96,0-16.25-7.29-16.25-16.25s7.29-16.25,16.25-16.25s16.25,7.29,16.25,16.25
				S81.751,63.289,72.791,63.289z M72.791,33.789c-7.306,0-13.25,5.944-13.25,13.25s5.944,13.25,13.25,13.25
				s13.25-5.944,13.25-13.25S80.097,33.789,72.791,33.789z"/>
		</g>
		<g>
			<path d="M67.167,45.712c-1.103,0-2-0.897-2-2s0.897-2,2-2s2,0.897,2,2S68.27,45.712,67.167,45.712z M67.167,42.712
				c-0.552,0-1,0.449-1,1s0.448,1,1,1s1-0.449,1-1S67.719,42.712,67.167,42.712z"/>
		</g>
		<g>
			<path d="M78.186,45.712c-1.103,0-2-0.897-2-2s0.897-2,2-2s2,0.897,2,2S79.288,45.712,78.186,45.712z M78.186,42.712
				c-0.552,0-1,0.449-1,1s0.448,1,1,1s1-0.449,1-1S78.737,42.712,78.186,42.712z"/>
		</g>
		<g>
			<path d="M75.291,53.653h-5c-0.828,0-1.5-0.671-1.5-1.5s0.672-1.5,1.5-1.5h5c0.828,0,1.5,0.671,1.5,1.5
				S76.119,53.653,75.291,53.653z"/>
		</g>
	</g>
	<g>
		<g>
			<path d="M133.696,63.289c-8.96,0-16.25-7.29-16.25-16.25s7.29-16.25,16.25-16.25s16.25,7.29,16.25,16.25
				S142.656,63.289,133.696,63.289z M133.696,33.789c-7.306,0-13.25,5.944-13.25,13.25s5.944,13.25,13.25,13.25
				s13.25-5.944,13.25-13.25S141.002,33.789,133.696,33.789z"/>
		</g>
		<g>
			<path d="M133.705,55.662c-2.747,0-5.268-1.384-6.744-3.703c-0.444-0.699-0.238-1.626,0.46-2.071
				c0.697-0.444,1.625-0.24,2.071,0.459c0.922,1.449,2.497,2.314,4.213,2.314c1.76,0,3.408-0.943,4.304-2.461
				c0.422-0.715,1.345-0.949,2.054-0.53c0.714,0.42,0.951,1.34,0.53,2.054C139.161,54.153,136.522,55.662,133.705,55.662z"/>
		</g>
		<g>
			<path d="M128.072,45.712c-1.103,0-2-0.897-2-2s0.897-2,2-2s2,0.897,2,2S129.175,45.712,128.072,45.712z M128.072,42.712
				c-0.552,0-1,0.449-1,1s0.448,1,1,1s1-0.449,1-1S128.624,42.712,128.072,42.712z"/>
		</g>
		<g>
			<path d="M139.091,45.712c-1.103,0-2-0.897-2-2s0.897-2,2-2s2,0.897,2,2S140.194,45.712,139.091,45.712z M139.091,42.712
				c-0.552,0-1,0.449-1,1s0.448,1,1,1s1-0.449,1-1S139.643,42.712,139.091,42.712z"/>
		</g>
	</g>
	<g>
		<path d="M26.303,23.713c0,0.552-0.772,1-1.724,1H8.027c-0.952,0-1.724-0.448-1.724-1l0,0c0-0.552,0.772-1,1.724-1h16.552
			C25.531,22.713,26.303,23.16,26.303,23.713L26.303,23.713z"/>
		<path d="M24.579,26.212H8.027c-1.838,0-3.225-1.075-3.225-2.5s1.387-2.5,3.225-2.5h16.552c1.838,0,3.224,1.075,3.224,2.5
			S26.417,26.212,24.579,26.212z"/>
	</g>
	<g>
		<path d="M26.303,13.713c0,0.552-0.772,1-1.724,1H8.027c-0.952,0-1.724-0.448-1.724-1l0,0c0-0.552,0.772-1,1.724-1h16.552
			C25.531,12.713,26.303,13.16,26.303,13.713L26.303,13.713z"/>
		<path d="M24.579,16.212H8.027c-1.838,0-3.225-1.075-3.225-2.5s1.387-2.5,3.225-2.5h16.552c1.838,0,3.224,1.075,3.224,2.5
			S26.417,16.212,24.579,16.212z"/>
	</g>
	<g>
		<path d="M26.303,3.712c0,0.552-0.772,1-1.724,1H8.027c-0.952,0-1.724-0.448-1.724-1l0,0c0-0.552,0.772-1,1.724-1h16.552
			C25.531,2.712,26.303,3.16,26.303,3.712L26.303,3.712z"/>
		<path d="M24.579,6.212H8.027c-1.838,0-3.225-1.075-3.225-2.5s1.387-2.5,3.225-2.5h16.552c1.838,0,3.224,1.075,3.224,2.5
			S26.417,6.212,24.579,6.212z"/>
	</g>
	<g>
		<path d="M82.792,23.713c0,0.552-0.772,1-1.724,1H64.516c-0.952,0-1.724-0.448-1.724-1l0,0c0-0.552,0.772-1,1.724-1h16.552
			C82.02,22.713,82.792,23.16,82.792,23.713L82.792,23.713z"/>
		<path d="M81.068,26.212H64.516c-1.838,0-3.225-1.075-3.225-2.5s1.387-2.5,3.225-2.5h16.552c1.838,0,3.224,1.075,3.224,2.5
			S82.905,26.212,81.068,26.212z"/>
	</g>
	<g>
		<path d="M82.792,13.713c0,0.552-0.772,1-1.724,1H64.516c-0.952,0-1.724-0.448-1.724-1l0,0c0-0.552,0.772-1,1.724-1h16.552
			C82.02,12.713,82.792,13.16,82.792,13.713L82.792,13.713z"/>
		<path d="M81.068,16.212H64.516c-1.838,0-3.225-1.075-3.225-2.5s1.387-2.5,3.225-2.5h16.552c1.838,0,3.224,1.075,3.224,2.5
			S82.905,16.212,81.068,16.212z"/>
	</g>
	<g>
		<path d="M143.697,23.713c0,0.552-0.772,1-1.724,1h-16.552c-0.952,0-1.724-0.448-1.724-1l0,0c0-0.552,0.772-1,1.724-1h16.552
			C142.925,22.713,143.697,23.16,143.697,23.713L143.697,23.713z"/>
		<path d="M141.973,26.212h-16.552c-1.838,0-3.225-1.075-3.225-2.5s1.387-2.5,3.225-2.5h16.552c1.838,0,3.224,1.075,3.224,2.5
			S143.811,26.212,141.973,26.212z"/>
	</g>
</g>
</svg>
