<?xml version="1.0" encoding="utf-8"?>
<!-- Generator: Adobe Illustrator 17.0.0, SVG Export Plug-In . SVG Version: 6.00 Build 0)  -->
<!DOCTYPE svg PUBLIC "-//W3C//DTD SVG 1.1//EN" "http://www.w3.org/Graphics/SVG/1.1/DTD/svg11.dtd">
<svg version="1.1" id="Layer_1" xmlns="http://www.w3.org/2000/svg" xmlns:xlink="http://www.w3.org/1999/xlink" x="0px" y="0px"
	 width="204px" height="72px" viewBox="0 0 204 72" enable-background="new 0 0 204 72" xml:space="preserve">
<g>
	<g>
		<g>
			<path d="M29.662,63.329c-8.96,0-16.25-7.29-16.25-16.25s7.29-16.25,16.25-16.25s16.25,7.29,16.25,16.25
				S38.622,63.329,29.662,63.329z M29.662,33.829c-7.306,0-13.25,5.944-13.25,13.25s5.944,13.25,13.25,13.25
				s13.25-5.944,13.25-13.25S36.968,33.829,29.662,33.829z"/>
		</g>
		<g>
			<path d="M24.037,45.751c-1.103,0-2-0.897-2-2s0.897-2,2-2s2,0.897,2,2S25.14,45.751,24.037,45.751z M24.037,42.751
				c-0.552,0-1,0.449-1,1s0.448,1,1,1s1-0.449,1-1S24.589,42.751,24.037,42.751z"/>
		</g>
		<g>
			<path d="M35.057,45.751c-1.103,0-2-0.897-2-2s0.897-2,2-2s2,0.897,2,2S36.159,45.751,35.057,45.751z M35.057,42.751
				c-0.552,0-1,0.449-1,1s0.448,1,1,1s1-0.449,1-1S35.608,42.751,35.057,42.751z"/>
		</g>
		<g>
			<path d="M25.161,55.393c-0.259,0-0.521-0.067-0.761-0.208c-0.714-0.421-0.951-1.34-0.53-2.054
				c0.769-1.304,2.877-4.339,5.84-4.339c2.546,0,4.515,2.251,5.717,4.14c0.445,0.699,0.24,1.625-0.459,2.071
				c-0.698,0.444-1.626,0.24-2.07-0.459c-1.081-1.697-2.303-2.751-3.187-2.751c-1.084,0-2.416,1.438-3.256,2.862
				C26.175,55.129,25.675,55.393,25.161,55.393z"/>
		</g>
	</g>
	<g>
		<g>
			<path d="M112.153,63.329c-8.96,0-16.25-7.29-16.25-16.25s7.29-16.25,16.25-16.25s16.25,7.29,16.25,16.25
				S121.113,63.329,112.153,63.329z M112.153,33.829c-7.306,0-13.25,5.944-13.25,13.25s5.944,13.25,13.25,13.25
				s13.25-5.944,13.25-13.25S119.459,33.829,112.153,33.829z"/>
		</g>
		<g>
			<path d="M106.528,45.751c-1.103,0-2-0.897-2-2s0.897-2,2-2s2,0.897,2,2S107.631,45.751,106.528,45.751z M106.528,42.751
				c-0.552,0-1,0.449-1,1s0.448,1,1,1s1-0.449,1-1S107.08,42.751,106.528,42.751z"/>
		</g>
		<g>
			<path d="M117.547,45.751c-1.103,0-2-0.897-2-2s0.897-2,2-2s2,0.897,2,2S118.649,45.751,117.547,45.751z M117.547,42.751
				c-0.552,0-1,0.449-1,1s0.448,1,1,1s1-0.449,1-1S118.099,42.751,117.547,42.751z"/>
		</g>
		<g>
			<path d="M114.652,53.693h-5c-0.828,0-1.5-0.671-1.5-1.5s0.672-1.5,1.5-1.5h5c0.828,0,1.5,0.671,1.5,1.5
				S115.48,53.693,114.652,53.693z"/>
		</g>
	</g>
	<g>
		<g>
			<path d="M187.059,63.329c-8.96,0-16.25-7.29-16.25-16.25s7.29-16.25,16.25-16.25s16.25,7.29,16.25,16.25
				S196.019,63.329,187.059,63.329z M187.059,33.829c-7.306,0-13.25,5.944-13.25,13.25s5.944,13.25,13.25,13.25
				s13.25-5.944,13.25-13.25S194.365,33.829,187.059,33.829z"/>
		</g>
		<g>
			<path d="M187.067,55.701c-2.746,0-5.267-1.384-6.744-3.703c-0.444-0.699-0.239-1.626,0.46-2.071
				c0.697-0.445,1.625-0.241,2.071,0.459c0.923,1.449,2.498,2.314,4.213,2.314c1.761,0,3.409-0.943,4.304-2.461
				c0.421-0.713,1.341-0.951,2.054-0.531c0.713,0.42,0.951,1.34,0.531,2.054C192.524,54.192,189.886,55.701,187.067,55.701z"/>
		</g>
		<g>
			<path d="M181.434,45.751c-1.103,0-2-0.897-2-2s0.897-2,2-2s2,0.897,2,2S182.537,45.751,181.434,45.751z M181.434,42.751
				c-0.552,0-1,0.449-1,1s0.448,1,1,1s1-0.449,1-1S181.986,42.751,181.434,42.751z"/>
		</g>
		<g>
			<path d="M192.453,45.751c-1.103,0-2-0.897-2-2s0.897-2,2-2s2,0.897,2,2S193.556,45.751,192.453,45.751z M192.453,42.751
				c-0.552,0-1,0.449-1,1s0.448,1,1,1s1-0.449,1-1S193.005,42.751,192.453,42.751z"/>
		</g>
	</g>
	<g>
		<g>
			<path d="M29.662,22.838c-0.828,0-1.5-0.671-1.5-1.5V8.171c0-0.829,0.672-1.5,1.5-1.5s1.5,0.671,1.5,1.5v13.167
				C31.162,22.167,30.49,22.838,29.662,22.838z"/>
		</g>
		<g>
			<path d="M29.664,22.838c-0.384,0-0.768-0.146-1.061-0.439c-0.586-0.586-0.586-1.536,0-2.122l4.767-4.769
				c0.586-0.586,1.535-0.585,2.121,0c0.586,0.586,0.586,1.536,0,2.122l-4.767,4.769C30.432,22.692,30.048,22.838,29.664,22.838z"/>
		</g>
		<g>
			<path d="M29.663,22.838c-0.384,0-0.768-0.146-1.061-0.439l-4.768-4.768c-0.586-0.585-0.586-1.536,0-2.121
				c0.586-0.586,1.535-0.586,2.121,0l4.768,4.768c0.586,0.585,0.586,1.536,0,2.121C30.431,22.692,30.047,22.838,29.663,22.838z"/>
		</g>
	</g>
	<g>
		<g>
			<path d="M47.808,30.31c-0.384,0-0.768-0.146-1.061-0.439c-0.586-0.586-0.586-1.536,0-2.121l9.311-9.31
				c0.586-0.586,1.535-0.586,2.121,0s0.586,1.536,0,2.121l-9.311,9.31C48.575,30.163,48.191,30.31,47.808,30.31z"/>
		</g>
		<g>
			<path d="M47.809,30.311c-0.828,0-1.5-0.671-1.5-1.5c0-0.828,0.671-1.5,1.5-1.5l6.743-0.001c0.828,0,1.5,0.671,1.5,1.5
				c0,0.828-0.671,1.5-1.5,1.5L47.809,30.311z"/>
		</g>
		<g>
			<path d="M47.809,30.311c-0.828,0-1.5-0.671-1.5-1.5v-6.742c0-0.829,0.672-1.5,1.5-1.5s1.5,0.671,1.5,1.5v6.742
				C49.309,29.639,48.637,30.311,47.809,30.311z"/>
		</g>
	</g>
	<g>
		<g>
			<path d="M11.501,30.273c-0.384,0-0.768-0.146-1.061-0.439L1.13,20.523c-0.586-0.585-0.586-1.536,0-2.121
				c0.586-0.586,1.535-0.586,2.121,0l9.311,9.311c0.586,0.585,0.586,1.536,0,2.121C12.268,30.127,11.885,30.273,11.501,30.273z"/>
		</g>
		<g>
			<path d="M11.503,30.272c-0.828,0-1.5-0.671-1.5-1.5l-0.001-6.743c0-0.828,0.671-1.5,1.5-1.5c0.828,0,1.5,0.671,1.5,1.5
				l0.001,6.743C13.003,29.601,12.332,30.272,11.503,30.272z"/>
		</g>
		<g>
			<path d="M4.76,30.273c-0.828,0-1.5-0.671-1.5-1.5c0-0.828,0.672-1.5,1.5-1.5l6.742,0c0.828,0,1.5,0.671,1.5,1.5
				c0,0.828-0.672,1.5-1.5,1.5L4.76,30.273z"/>
		</g>
	</g>
	<g>
		<g>
			<path d="M102.35,24.839c-0.589,0-1.147-0.349-1.387-0.926L95.92,11.751c-0.317-0.766,0.046-1.643,0.812-1.96
				c0.763-0.317,1.643,0.046,1.96,0.811l5.043,12.163c0.317,0.766-0.046,1.643-0.812,1.96
				C102.735,24.802,102.541,24.839,102.35,24.839z"/>
		</g>
		<g>
			<path d="M102.35,24.839c-0.19,0-0.385-0.037-0.572-0.114c-0.766-0.317-1.13-1.194-0.812-1.959l2.577-6.23
				c0.316-0.765,1.193-1.13,1.959-0.813c0.766,0.317,1.13,1.194,0.812,1.959l-2.577,6.23
				C103.498,24.49,102.938,24.839,102.35,24.839z"/>
		</g>
		<g>
			<path d="M102.35,24.839c-0.19,0-0.385-0.037-0.572-0.114l-6.23-2.578c-0.766-0.317-1.13-1.194-0.812-1.959
				c0.316-0.765,1.193-1.13,1.959-0.813l6.23,2.578c0.766,0.317,1.13,1.194,0.812,1.959C103.497,24.49,102.938,24.839,102.35,24.839
				z"/>
		</g>
	</g>
	<g>
		<g>
			<path d="M121.971,24.791c-0.19,0-0.385-0.037-0.572-0.114c-0.766-0.317-1.13-1.194-0.812-1.96l5.034-12.166
				c0.316-0.764,1.191-1.13,1.959-0.812c0.766,0.317,1.13,1.194,0.812,1.96l-5.034,12.166
				C123.118,24.442,122.559,24.791,121.971,24.791z"/>
		</g>
		<g>
			<path d="M121.975,24.792c-0.589,0-1.147-0.349-1.387-0.926c-0.317-0.765,0.046-1.643,0.811-1.96l6.228-2.583
				c0.769-0.317,1.645,0.046,1.961,0.811c0.317,0.765-0.046,1.643-0.811,1.96l-6.228,2.583
				C122.36,24.755,122.166,24.792,121.975,24.792z"/>
		</g>
		<g>
			<path d="M121.975,24.792c-0.589,0-1.147-0.349-1.387-0.926l-2.583-6.228c-0.317-0.765,0.046-1.643,0.812-1.96
				c0.765-0.317,1.644,0.046,1.96,0.811l2.583,6.228c0.317,0.765-0.046,1.643-0.812,1.96
				C122.36,24.754,122.166,24.792,121.975,24.792z"/>
		</g>
	</g>
	<g>
		<g>
			<path d="M187.125,22.838c-0.828,0-1.5-0.671-1.5-1.5V8.171c0-0.829,0.672-1.5,1.5-1.5s1.5,0.671,1.5,1.5v13.167
				C188.625,22.167,187.953,22.838,187.125,22.838z"/>
		</g>
		<g>
			<path d="M187.127,22.838c-0.384,0-0.768-0.146-1.061-0.439c-0.586-0.586-0.586-1.536,0-2.122l4.767-4.769
				c0.586-0.586,1.535-0.585,2.121,0c0.586,0.586,0.586,1.536,0,2.122l-4.767,4.769C187.894,22.692,187.511,22.838,187.127,22.838z"
				/>
		</g>
		<g>
			<path d="M187.127,22.838c-0.384,0-0.768-0.146-1.061-0.439l-4.769-4.768c-0.586-0.585-0.586-1.535,0-2.121s1.535-0.586,2.121,0
				l4.769,4.768c0.586,0.585,0.586,1.535,0,2.121C187.894,22.692,187.511,22.838,187.127,22.838z"/>
		</g>
	</g>
</g>
</svg>
