<?xml version="1.0" encoding="utf-8"?>
<!-- Generator: Adobe Illustrator 17.0.0, SVG Export Plug-In . SVG Version: 6.00 Build 0)  -->
<!DOCTYPE svg PUBLIC "-//W3C//DTD SVG 1.1//EN" "http://www.w3.org/Graphics/SVG/1.1/DTD/svg11.dtd">
<svg version="1.1" id="Layer_1" xmlns="http://www.w3.org/2000/svg" xmlns:xlink="http://www.w3.org/1999/xlink" x="0px" y="0px"
	 width="180px" height="72px" viewBox="0 0 180 72" enable-background="new 0 0 180 72" xml:space="preserve">
<g>
	<g>
		<circle fill="none" stroke="#000000" stroke-width="3" stroke-miterlimit="10" cx="16.666" cy="47.001" r="14.75"/>
		<path fill="none" stroke="#000000" stroke-width="3" stroke-linecap="round" stroke-miterlimit="10" d="M11.196,51.115
			c1.152,1.809,3.175,3.009,5.478,3.009c2.384,0,4.467-1.285,5.596-3.2"/>
		<circle fill="none" stroke="#000000" stroke-width="3" stroke-miterlimit="10" cx="11.041" cy="43.674" r="0.5"/>
		<circle fill="none" stroke="#000000" stroke-width="3" stroke-miterlimit="10" cx="22.06" cy="43.674" r="0.5"/>
	</g>
	<g>
		<circle fill="none" stroke="#000000" stroke-width="3" stroke-miterlimit="10" cx="88.9" cy="47.001" r="14.75"/>
		<path fill="none" stroke="#000000" stroke-width="3" stroke-linecap="round" stroke-miterlimit="10" d="M83.43,51.115
			c1.152,1.809,3.175,3.009,5.478,3.009c2.384,0,4.467-1.285,5.596-3.2"/>
		<circle fill="none" stroke="#000000" stroke-width="3" stroke-miterlimit="10" cx="83.275" cy="43.674" r="0.5"/>
		<circle fill="none" stroke="#000000" stroke-width="3" stroke-miterlimit="10" cx="94.294" cy="43.674" r="0.5"/>
	</g>
	<g>
		<circle fill="none" stroke="#000000" stroke-width="3" stroke-miterlimit="10" cx="163.334" cy="47.001" r="14.75"/>
		<path d="M170.751,50.001c-4.875,0-8.875,0-14.833,0c0,3.208,3.321,6.417,7.417,6.417C167.43,56.418,170.751,53.209,170.751,50.001
			z"/>
		<circle fill="none" stroke="#000000" stroke-width="3" stroke-miterlimit="10" cx="157.825" cy="43.674" r="0.5"/>
		<circle fill="none" stroke="#000000" stroke-width="3" stroke-miterlimit="10" cx="168.844" cy="43.674" r="0.5"/>
	</g>
	<g>
		
			<line fill="none" stroke="#000000" stroke-width="3" stroke-linecap="round" stroke-miterlimit="10" x1="52.794" y1="39.001" x2="52.794" y2="55.001"/>
		
			<line fill="none" stroke="#000000" stroke-width="3" stroke-linecap="round" stroke-miterlimit="10" x1="60.794" y1="47.001" x2="44.794" y2="47.001"/>
	</g>
	<g>
		
			<line fill="none" stroke="#000000" stroke-width="3" stroke-linecap="round" stroke-miterlimit="10" x1="52.794" y1="39.001" x2="52.794" y2="55.001"/>
		
			<line fill="none" stroke="#000000" stroke-width="3" stroke-linecap="round" stroke-miterlimit="10" x1="60.794" y1="47.001" x2="44.794" y2="47.001"/>
	</g>
	<g>
		
			<line fill="none" stroke="#000000" stroke-width="3" stroke-linecap="round" stroke-miterlimit="10" x1="133.794" y1="52.001" x2="117.794" y2="52.001"/>
		<g>
			
				<line fill="none" stroke="#000000" stroke-width="3" stroke-linecap="round" stroke-miterlimit="10" x1="133.794" y1="42" x2="117.794" y2="42"/>
		</g>
	</g>
</g>
</svg>
