<?xml version="1.0" encoding="utf-8"?>
<!-- Generator: Adobe Illustrator 17.0.0, SVG Export Plug-In . SVG Version: 6.00 Build 0)  -->
<!DOCTYPE svg PUBLIC "-//W3C//DTD SVG 1.1//EN" "http://www.w3.org/Graphics/SVG/1.1/DTD/svg11.dtd">
<svg version="1.1" id="Layer_1" xmlns="http://www.w3.org/2000/svg" xmlns:xlink="http://www.w3.org/1999/xlink" x="0px" y="0px"
	 width="128px" height="72px" viewBox="0 0 128 72" enable-background="new 0 0 128 72" xml:space="preserve">
<g>
	<g>
		<path fill-rule="evenodd" clip-rule="evenodd" fill="#181616" d="M16.078,22.27C8.304,22.27,2,28.572,2,36.348
			c0,6.22,4.034,11.497,9.627,13.359c0.703,0.13,0.962-0.306,0.962-0.677c0-0.336-0.013-1.445-0.019-2.621
			c-3.916,0.852-4.743-1.661-4.743-1.661c-0.64-1.627-1.563-2.06-1.563-2.06c-1.277-0.874,0.096-0.856,0.096-0.856
			c1.414,0.099,2.158,1.451,2.158,1.451c1.256,2.152,3.293,1.53,4.097,1.17c0.126-0.91,0.491-1.531,0.894-1.883
			c-3.127-0.356-6.414-1.563-6.414-6.957c0-1.537,0.55-2.793,1.451-3.779c-0.146-0.355-0.628-1.786,0.136-3.726
			c0,0,1.182-0.378,3.872,1.443c1.123-0.312,2.327-0.468,3.524-0.474c1.196,0.005,2.402,0.162,3.527,0.474
			c2.687-1.821,3.868-1.443,3.868-1.443c0.766,1.939,0.284,3.371,0.138,3.726c0.903,0.986,1.449,2.242,1.449,3.779
			c0,5.407-3.293,6.598-6.428,6.946c0.505,0.437,0.955,1.294,0.955,2.607c0,1.884-0.016,3.4-0.016,3.863
			c0,0.375,0.253,0.814,0.967,0.675c5.591-1.864,9.619-7.139,9.619-13.357C30.156,28.572,23.853,22.27,16.078,22.27z"/>
		<path fill="#181616" d="M7.332,42.482c-0.031,0.07-0.141,0.091-0.241,0.043c-0.102-0.046-0.159-0.141-0.126-0.211
			c0.03-0.072,0.14-0.092,0.242-0.044C7.309,42.316,7.367,42.412,7.332,42.482L7.332,42.482z M7.159,42.354"/>
		<path fill="#181616" d="M7.902,43.119c-0.067,0.062-0.199,0.033-0.288-0.065c-0.092-0.098-0.109-0.229-0.041-0.293
			c0.069-0.062,0.196-0.033,0.289,0.065C7.955,42.925,7.973,43.055,7.902,43.119L7.902,43.119z M7.768,42.974"/>
		<path fill="#181616" d="M8.457,43.929c-0.086,0.06-0.227,0.004-0.315-0.121c-0.086-0.125-0.086-0.275,0.002-0.336
			c0.087-0.06,0.226-0.006,0.315,0.118C8.546,43.718,8.546,43.868,8.457,43.929L8.457,43.929z M8.457,43.929"/>
		<path fill="#181616" d="M9.218,44.713c-0.077,0.085-0.242,0.062-0.362-0.054c-0.123-0.113-0.157-0.275-0.08-0.36
			c0.078-0.085,0.244-0.061,0.365,0.054C9.263,44.466,9.3,44.628,9.218,44.713L9.218,44.713z M9.218,44.713"/>
		<path fill="#181616" d="M10.267,45.167c-0.034,0.11-0.192,0.16-0.352,0.113c-0.159-0.048-0.263-0.177-0.231-0.289
			c0.033-0.111,0.192-0.163,0.353-0.113C10.196,44.927,10.3,45.055,10.267,45.167L10.267,45.167z M10.267,45.167"/>
		<path fill="#181616" d="M11.419,45.252c0.004,0.116-0.131,0.212-0.299,0.214c-0.168,0.004-0.305-0.09-0.306-0.204
			c0-0.117,0.132-0.212,0.301-0.215C11.282,45.043,11.419,45.137,11.419,45.252L11.419,45.252z M11.419,45.252"/>
		<path fill="#181616" d="M12.491,45.069c0.02,0.113-0.096,0.229-0.263,0.26c-0.163,0.03-0.315-0.04-0.336-0.152
			c-0.02-0.116,0.098-0.232,0.261-0.263C12.321,44.886,12.47,44.954,12.491,45.069L12.491,45.069z M12.491,45.069"/>
	</g>
	<g>
		<path fill="#0F0D0E" d="M54.591,34.245h-7.575c-0.195,0-0.354,0.159-0.354,0.354v3.704c0,0.195,0.159,0.355,0.354,0.355h2.955
			v4.601c0,0-0.664,0.226-2.498,0.226c-2.164,0-5.188-0.791-5.188-7.439c0-6.65,3.148-7.525,6.104-7.525
			c2.558,0,3.661,0.45,4.362,0.668c0.22,0.067,0.424-0.152,0.424-0.347l0.845-3.578c0-0.092-0.031-0.202-0.135-0.277
			c-0.285-0.203-2.022-1.175-6.412-1.175c-5.057,0-10.244,2.151-10.244,12.494c0,10.343,5.939,11.884,10.944,11.884
			c4.144,0,6.658-1.771,6.658-1.771c0.104-0.057,0.115-0.202,0.115-0.268V34.599C54.945,34.404,54.787,34.245,54.591,34.245z"/>
		<path fill="#0F0D0E" d="M93.63,25.05c0-0.197-0.156-0.356-0.352-0.356h-4.265c-0.195,0-0.353,0.159-0.353,0.356
			c0,0.001,0.001,8.243,0.001,8.243h-6.648V25.05c0-0.197-0.157-0.356-0.352-0.356h-4.265c-0.194,0-0.352,0.159-0.352,0.356v22.319
			c0,0.197,0.158,0.357,0.352,0.357h4.265c0.195,0,0.352-0.16,0.352-0.357v-9.547h6.648c0,0-0.012,9.546-0.012,9.547
			c0,0.197,0.158,0.357,0.353,0.357h4.275c0.195,0,0.352-0.16,0.352-0.357V25.05z"/>
		<g>
			<g>
				<ellipse fill="#0F0D0E" cx="59.89" cy="27.979" rx="2.75" ry="2.777"/>
				<path fill="#0F0D0E" d="M62.335,42.661c0-0.572,0-10.303,0-10.303c0-0.196-0.158-0.356-0.353-0.356H57.73
					c-0.195,0-0.37,0.201-0.37,0.397c0,0,0,12.397,0,14.76c0,0.434,0.27,0.563,0.62,0.563c0,0,1.815,0,3.831,0
					c0.42,0,0.523-0.206,0.523-0.57C62.335,46.362,62.335,43.263,62.335,42.661z"/>
			</g>
		</g>
		<path fill="#0F0D0E" d="M109.84,32.036h-4.233c-0.194,0-0.352,0.16-0.352,0.357v10.944c0,0-1.075,0.787-2.602,0.787
			c-1.526,0-1.931-0.693-1.931-2.187c0-1.496,0-9.544,0-9.544c0-0.197-0.158-0.357-0.352-0.357h-4.296
			c-0.194,0-0.353,0.16-0.353,0.357c0,0,0,5.828,0,10.266c0,4.439,2.474,5.525,5.877,5.525c2.792,0,5.043-1.542,5.043-1.542
			s0.107,0.813,0.156,0.909c0.049,0.096,0.175,0.193,0.311,0.193l2.733-0.012c0.194,0,0.353-0.16,0.353-0.356l-0.001-14.982
			C110.193,32.197,110.035,32.036,109.84,32.036z"/>
		<path fill="#0F0D0E" d="M121.408,31.535c-2.404,0-4.039,1.073-4.039,1.073V25.05c0-0.197-0.157-0.356-0.352-0.356h-4.277
			c-0.194,0-0.352,0.159-0.352,0.356v22.319c0,0.197,0.158,0.357,0.353,0.357h2.967c0.135,0,0.236-0.069,0.311-0.19
			c0.074-0.12,0.18-1.029,0.18-1.029s1.749,1.657,5.06,1.657c3.887,0,6.116-1.972,6.116-8.851
			C127.374,32.434,123.814,31.535,121.408,31.535z M119.739,44.11c-1.468-0.045-2.464-0.711-2.464-0.711v-7.068
			c0,0,0.982-0.602,2.188-0.71c1.524-0.136,2.993,0.324,2.993,3.96C122.455,43.415,121.793,44.172,119.739,44.11z"/>
		<path fill="#0F0D0E" d="M74.594,32.001h-3.199c0,0-0.005-4.226-0.005-4.227c0-0.16-0.082-0.24-0.267-0.24h-4.36
			c-0.17,0-0.26,0.075-0.26,0.237v4.368c0,0-2.185,0.527-2.333,0.57c-0.147,0.043-0.255,0.178-0.255,0.34v2.745
			c0,0.197,0.158,0.357,0.353,0.357h2.235c0,0,0,2.871,0,6.603c0,4.905,3.44,5.386,5.762,5.386c1.061,0,2.33-0.341,2.539-0.418
			c0.127-0.047,0.2-0.178,0.2-0.32l0.003-3.019c0-0.197-0.166-0.356-0.354-0.356c-0.186,0-0.663,0.076-1.154,0.076
			c-1.572,0-2.104-0.731-2.104-1.677c0-0.945,0-6.275,0-6.275h3.2c0.195,0,0.353-0.159,0.353-0.357v-3.438
			C74.947,32.16,74.789,32.001,74.594,32.001z"/>
	</g>
</g>
</svg>
