<?xml version="1.0" encoding="utf-8"?>
<!-- Generator: Adobe Illustrator 17.0.0, SVG Export Plug-In . SVG Version: 6.00 Build 0)  -->
<!DOCTYPE svg PUBLIC "-//W3C//DTD SVG 1.1//EN" "http://www.w3.org/Graphics/SVG/1.1/DTD/svg11.dtd">
<svg version="1.1" id="Layer_1" xmlns="http://www.w3.org/2000/svg" xmlns:xlink="http://www.w3.org/1999/xlink" x="0px" y="0px"
	 width="282px" height="72px" viewBox="0 0 282 72" enable-background="new 0 0 282 72" xml:space="preserve">
<g>
	<g>
		<path fill-rule="evenodd" clip-rule="evenodd" fill="#181616" d="M34.721,5.766c-17.118,0-31,13.878-31,31
			c0,13.696,8.882,25.316,21.2,29.416c1.549,0.287,2.118-0.673,2.118-1.491c0-0.739-0.029-3.181-0.042-5.772
			c-8.624,1.875-10.444-3.658-10.444-3.658c-1.41-3.583-3.442-4.536-3.442-4.536c-2.813-1.924,0.212-1.884,0.212-1.884
			c3.113,0.219,4.752,3.195,4.752,3.195c2.765,4.739,7.252,3.369,9.021,2.577c0.278-2.003,1.081-3.371,1.968-4.145
			c-6.886-0.784-14.124-3.442-14.124-15.32c0-3.384,1.211-6.15,3.194-8.321c-0.322-0.781-1.383-3.934,0.3-8.204
			c0,0,2.603-0.833,8.527,3.178c2.473-0.687,5.125-1.031,7.759-1.043c2.634,0.012,5.288,0.356,7.766,1.043
			c5.917-4.011,8.516-3.178,8.516-3.178c1.687,4.27,0.626,7.423,0.304,8.204c1.988,2.171,3.19,4.936,3.19,8.321
			c0,11.907-7.252,14.528-14.155,15.296c1.112,0.962,2.103,2.849,2.103,5.741c0,4.148-0.036,7.486-0.036,8.507
			c0,0.825,0.558,1.792,2.129,1.487c12.311-4.104,21.182-15.72,21.182-29.412C65.721,19.644,51.842,5.766,34.721,5.766z"/>
		<path fill="#181616" d="M15.463,50.274c-0.068,0.154-0.311,0.201-0.531,0.095c-0.225-0.101-0.351-0.311-0.278-0.466
			c0.067-0.158,0.309-0.203,0.534-0.097C15.412,49.908,15.54,50.12,15.463,50.274L15.463,50.274z M15.081,49.992"/>
		<path fill="#181616" d="M16.718,51.675c-0.148,0.137-0.437,0.073-0.633-0.143c-0.203-0.216-0.241-0.505-0.091-0.644
			c0.152-0.137,0.433-0.073,0.636,0.143C16.833,51.249,16.873,51.536,16.718,51.675L16.718,51.675z M16.423,51.358"/>
		<path fill="#181616" d="M17.941,53.46c-0.19,0.132-0.501,0.009-0.693-0.267c-0.19-0.276-0.19-0.607,0.004-0.739
			c0.192-0.132,0.498-0.013,0.693,0.26C18.135,52.995,18.135,53.325,17.941,53.46L17.941,53.46z M17.941,53.46"/>
		<path fill="#181616" d="M19.615,55.185c-0.17,0.187-0.532,0.137-0.797-0.119c-0.271-0.25-0.346-0.605-0.176-0.792
			c0.172-0.188,0.536-0.135,0.803,0.119C19.714,54.643,19.796,55,19.615,55.185L19.615,55.185z M19.615,55.185"/>
		<path fill="#181616" d="M21.925,56.187c-0.075,0.243-0.424,0.353-0.775,0.25c-0.351-0.106-0.58-0.391-0.509-0.636
			c0.073-0.245,0.423-0.359,0.777-0.249C21.768,55.658,21.998,55.94,21.925,56.187L21.925,56.187z M21.925,56.187"/>
		<path fill="#181616" d="M24.462,56.372c0.009,0.256-0.289,0.468-0.658,0.472c-0.37,0.009-0.671-0.199-0.675-0.45
			c0-0.258,0.291-0.468,0.662-0.474C24.16,55.913,24.462,56.119,24.462,56.372L24.462,56.372z M24.462,56.372"/>
		<path fill="#181616" d="M26.823,55.971c0.044,0.249-0.212,0.505-0.578,0.574c-0.36,0.066-0.693-0.088-0.739-0.335
			c-0.045-0.256,0.216-0.512,0.576-0.578C26.448,55.567,26.776,55.717,26.823,55.971L26.823,55.971z M26.823,55.971"/>
	</g>
	<g>
		<path fill="#0F0D0E" d="M119.528,32.135h-16.681c-0.43,0-0.779,0.349-0.779,0.78v8.155c0,0.43,0.349,0.781,0.779,0.781h6.507
			v10.132c0,0-1.461,0.498-5.5,0.498c-4.766,0-11.423-1.741-11.423-16.381c0-14.642,6.932-16.569,13.441-16.569
			c5.634,0,8.061,0.992,9.605,1.47c0.485,0.149,0.934-0.335,0.934-0.765l1.861-7.88c0-0.202-0.068-0.444-0.298-0.609
			c-0.627-0.447-4.453-2.588-14.119-2.588c-11.136,0-22.558,4.738-22.558,27.512c0,22.775,13.078,26.169,24.098,26.169
			c9.125,0,14.66-3.899,14.66-3.899c0.228-0.126,0.253-0.445,0.253-0.591V32.915C120.307,32.485,119.958,32.135,119.528,32.135z"/>
		<path fill="#0F0D0E" d="M205.492,11.888c0-0.434-0.344-0.784-0.774-0.784h-9.392c-0.429,0-0.778,0.35-0.778,0.784
			c0,0.002,0.002,18.15,0.002,18.15h-14.64v-18.15c0-0.434-0.346-0.784-0.775-0.784h-9.392c-0.427,0-0.776,0.35-0.776,0.784v49.147
			c0,0.434,0.348,0.786,0.776,0.786h9.392c0.429,0,0.775-0.353,0.775-0.786V40.013h14.64c0,0-0.025,21.02-0.025,21.022
			c0,0.434,0.348,0.786,0.778,0.786h9.414c0.43,0,0.774-0.353,0.775-0.786V11.888z"/>
		<g>
			<g>
				<path fill="#0F0D0E" d="M137.251,18.337c0-3.382-2.711-6.115-6.057-6.115c-3.342,0-6.055,2.733-6.055,6.115
					c0,3.378,2.713,6.119,6.055,6.119C134.54,24.456,137.251,21.716,137.251,18.337z"/>
				<path fill="#0F0D0E" d="M136.579,50.668c0-1.259,0-22.686,0-22.686c0-0.431-0.348-0.783-0.777-0.783h-9.363
					c-0.429,0-0.814,0.443-0.814,0.874c0,0,0,27.299,0,32.502c0,0.955,0.595,1.239,1.366,1.239c0,0,3.996,0,8.435,0
					c0.926,0,1.152-0.454,1.152-1.255C136.579,58.817,136.579,51.992,136.579,50.668z"/>
			</g>
		</g>
		<path fill="#0F0D0E" d="M241.186,27.272h-9.32c-0.427,0-0.775,0.352-0.775,0.786v24.098c0,0-2.368,1.732-5.729,1.732
			c-3.36,0-4.252-1.525-4.252-4.815c0-3.295,0-21.015,0-21.015c0-0.434-0.347-0.786-0.775-0.786h-9.459
			c-0.427,0-0.777,0.352-0.777,0.786c0,0,0,12.833,0,22.606c0,9.774,5.447,12.165,12.941,12.165c6.148,0,11.104-3.396,11.104-3.396
			s0.236,1.79,0.343,2.002c0.107,0.212,0.385,0.425,0.686,0.425l6.018-0.027c0.427,0,0.777-0.353,0.777-0.785l-0.003-32.991
			C241.964,27.625,241.615,27.272,241.186,27.272z"/>
		<path fill="#0F0D0E" d="M266.659,26.168c-5.293,0-8.894,2.362-8.894,2.362V11.888c0-0.434-0.347-0.784-0.775-0.784h-9.419
			c-0.428,0-0.776,0.35-0.776,0.784v49.147c0,0.434,0.348,0.786,0.777,0.786c0.001,0,6.533,0,6.533,0
			c0.296,0,0.519-0.152,0.684-0.417c0.162-0.264,0.397-2.266,0.397-2.266s3.851,3.65,11.142,3.65c8.559,0,13.468-4.342,13.468-19.49
			C279.796,28.148,271.956,26.168,266.659,26.168z M262.983,53.859c-3.233-0.098-5.425-1.565-5.425-1.565V36.73
			c0,0,2.163-1.326,4.817-1.563c3.356-0.301,6.59,0.713,6.59,8.72C268.965,52.329,267.505,53.995,262.983,53.859z"/>
		<path fill="#0F0D0E" d="M163.573,27.194h-7.045c0,0-0.01-9.305-0.01-9.307c0-0.352-0.182-0.528-0.589-0.528h-9.601
			c-0.373,0-0.574,0.164-0.574,0.523v9.618c0,0-4.811,1.162-5.137,1.255c-0.324,0.094-0.562,0.393-0.562,0.749v6.044
			c0,0.435,0.347,0.785,0.777,0.785h4.922c0,0,0,6.321,0,14.54c0,10.8,7.576,11.861,12.687,11.861c2.336,0,5.13-0.75,5.591-0.92
			c0.279-0.103,0.441-0.392,0.441-0.705l0.008-6.649c0-0.434-0.366-0.785-0.779-0.785c-0.411,0-1.461,0.167-2.542,0.167
			c-3.46,0-4.633-1.609-4.633-3.692c0-2.081,0-13.818,0-13.818h7.046c0.429,0,0.777-0.351,0.777-0.785v-7.571
			C164.35,27.543,164.002,27.194,163.573,27.194z"/>
	</g>
</g>
</svg>
