<?xml version="1.0" encoding="utf-8"?>
<!-- Generator: Adobe Illustrator 17.0.0, SVG Export Plug-In . SVG Version: 6.00 Build 0)  -->
<!DOCTYPE svg PUBLIC "-//W3C//DTD SVG 1.1//EN" "http://www.w3.org/Graphics/SVG/1.1/DTD/svg11.dtd">
<svg version="1.1" id="Layer_1" xmlns="http://www.w3.org/2000/svg" xmlns:xlink="http://www.w3.org/1999/xlink" x="0px" y="0px"
	 width="1700px" height="48px" viewBox="0 0 1700 48" enable-background="new 0 0 1700 48" xml:space="preserve">
<g>
	<polygon fill="#E3EBEB" points="25.048,41.748 10.997,6.252 39.098,6.252 	"/>
	<polygon fill="#BAE4F4" points="1430.522,41.748 1416.471,6.252 1444.573,6.252 	"/>
	<polygon fill="#4DA6E8" points="1491.63,41.748 1477.579,6.252 1505.68,6.252 	"/>
	<polygon fill="#FFAE58" points="1552.737,41.748 1538.687,6.252 1566.788,6.252 	"/>
	<polygon fill="#FFE0BB" points="1613.845,41.748 1599.794,6.252 1627.895,6.252 	"/>
	<polygon fill="#E3EBEB" points="330.586,41.748 316.535,6.252 344.636,6.252 	"/>
	<polygon fill="#E3EBEB" points="391.693,41.748 377.643,6.252 405.744,6.252 	"/>
	<polygon fill="#E3EBEB" points="452.801,41.748 438.75,6.252 466.851,6.252 	"/>
	<polygon fill="#E3EBEB" points="513.908,41.748 499.858,6.252 527.959,6.252 	"/>
	<polygon fill="#E3EBEB" points="575.016,41.748 560.965,6.252 589.066,6.252 	"/>
	<polygon fill="#E3EBEB" points="636.123,41.748 622.073,6.252 650.174,6.252 	"/>
	<polygon fill="#E3EBEB" points="697.231,41.748 683.18,6.252 711.282,6.252 	"/>
	<polygon fill="#E3EBEB" points="758.339,41.748 744.288,6.252 772.389,6.252 	"/>
	<polygon fill="#E3EBEB" points="819.446,41.748 805.396,6.252 833.497,6.252 	"/>
	<polygon fill="#E3EBEB" points="880.554,41.748 866.503,6.252 894.604,6.252 	"/>
	<polygon fill="#E3EBEB" points="941.661,41.748 927.611,6.252 955.712,6.252 	"/>
	<polygon fill="#E3EBEB" points="1002.769,41.748 988.718,6.252 1016.82,6.252 	"/>
	<polygon fill="#E3EBEB" points="1063.877,41.748 1049.826,6.252 1077.927,6.252 	"/>
	<polygon fill="#E3EBEB" points="1124.984,41.748 1110.934,6.252 1139.035,6.252 	"/>
	<polygon fill="#E3EBEB" points="1186.092,41.748 1172.041,6.252 1200.142,6.252 	"/>
	<polygon fill="#E3EBEB" points="1247.199,41.748 1233.149,6.252 1261.25,6.252 	"/>
	<polygon fill="#E3EBEB" points="1308.307,41.748 1294.256,6.252 1322.357,6.252 	"/>
	<polygon fill="#E3EBEB" points="1369.414,41.748 1355.364,6.252 1383.465,6.252 	"/>
	<polygon fill="#E3EBEB" points="86.155,41.748 72.105,6.252 100.206,6.252 	"/>
	<polygon fill="#E3EBEB" points="147.263,41.748 133.212,6.252 161.313,6.252 	"/>
	<polygon fill="#E3EBEB" points="208.37,41.748 194.32,6.252 222.421,6.252 	"/>
	<polygon fill="#E3EBEB" points="269.478,41.748 255.427,6.252 283.529,6.252 	"/>
	<polygon fill="#E3EBEB" points="1674.952,41.748 1660.902,6.252 1689.003,6.252 	"/>
</g>
</svg>
